<svg class="injected-svg" id="svg-797ab35f-c00f-492f-98a1-3a46ea346d87" height="100%" width="100%" viewBox="0 0 540 508" xmlns="http://www.w3.org/2000/svg"><g xmlns="http://www.w3.org/2000/svg" fill="#000000" id="shape-svg"><title>forma</title><g id="Слой_2" data-name="Слой 2"><g id="Слой_1-2" data-name="Слой 1"><g id="_b8584fff" data-name="#b8584fff"><path transform="translate(161, 204) scale(1,1)" d="M.1.11a24.81,24.81,0,0,1,4.72,0c.18,3,0,6,.07,9V96.26c0,2.94.12,5.89-.1,8.83a36.23,36.23,0,0,1-4.66,0C-.1,102.15.05,99.2,0,96.26Q0,52.68,0,9.11C.06,6.11-.09,3.1.1.11Z"></path></g></g></g></g><g xmlns="http://www.w3.org/2000/svg" fill="#5984d6" id="icon-svg">
	<path transform="translate(31, 196.5) scale(0.6,0.6)" d="M 88.618 15.082 C 56.747 19.426, 29.276 42.162, 19.065 72.649 C 5.460 113.267, 23.462 157.132, 61.500 176.052 C 75.685 183.108, 84.547 185.218, 100 185.218 C 115.509 185.218, 124.408 183.095, 138.500 176.034 C 160.313 165.103, 176.871 144.501, 183.131 120.500 C 186.053 109.298, 186.049 90.673, 183.122 79.500 C 178.637 62.379, 168.269 45.928, 154.500 34.083 C 147.146 27.757, 131.104 19.627, 120.942 17.077 C 111.508 14.709, 97.635 13.853, 88.618 15.082 M 85 25.479 C 53.896 32.424, 31.719 54.947, 25.445 85.963 C 23.459 95.776, 23.910 109.746, 26.527 119.500 C 33.443 145.284, 54.881 166.589, 81 173.638 C 89.946 176.052, 110.054 176.052, 119 173.638 C 140.163 167.927, 158.399 152.976, 167.957 133.500 C 173.829 121.536, 175.374 114.592, 175.410 100 C 175.445 85.447, 173.943 78.696, 167.957 66.500 C 158.491 47.212, 140.157 32.078, 119.500 26.501 C 110.987 24.203, 93.092 23.673, 85 25.479 M 91.750 42.545 C 76.555 46.308, 69 51.019, 69 56.732 C 69 61.344, 71.533 64, 75.930 64 C 79.080 64, 80.928 63.030, 86.526 58.442 C 97.409 49.521, 99.587 48.713, 111.420 49.202 C 126.509 49.825, 136.396 54.374, 142.391 63.450 C 144.487 66.623, 145 68.602, 145 73.504 C 145 87.810, 132.895 100.219, 114.769 104.492 C 106.092 106.538, 104 106.446, 104 104.019 C 104 102.672, 104.880 101.843, 106.750 101.429 C 116.004 99.380, 121.763 96.546, 129.059 90.451 C 133.633 86.629, 143 75.532, 143 73.934 C 143 73.370, 125.945 73, 99.943 73 L 56.887 73 58.693 76.165 C 64.139 85.705, 80.862 98.686, 90 100.467 C 96.306 101.696, 97 102.085, 97 104.391 C 97 106.367, 96.227 106.791, 90.774 107.805 C 82.423 109.358, 75.770 112.870, 74.537 116.375 C 72.874 121.105, 75.417 123.911, 86.770 129.869 L 97 135.237 97 140.967 C 97 146.689, 96.995 146.699, 92.978 148.510 C 90.766 149.507, 87.054 152.388, 84.728 154.912 L 80.500 159.500 90.803 159.786 C 96.470 159.943, 105.386 159.943, 110.617 159.786 L 120.127 159.500 116.561 155.338 C 114.599 153.049, 110.971 150.196, 108.497 148.999 C 104.696 147.159, 104 146.371, 104 143.911 C 104 142.310, 104.259 141, 104.576 141 C 104.893 141, 107.705 142.952, 110.826 145.338 C 118.917 151.524, 122 153.400, 122 152.138 C 122 151.537, 117.950 147.601, 113 143.391 L 104 135.737 104 123.868 L 104 112 106.750 111.983 C 111.997 111.950, 123.358 109.021, 129.636 106.083 C 142.977 99.840, 151.793 87.626, 152.765 74.039 C 153.204 67.907, 152.939 66.395, 150.576 61.566 C 144.290 48.717, 127.114 39.946, 108.500 40.080 C 104.631 40.108, 97.139 41.210, 91.750 42.545 M 89.500 113.661 C 83.630 114.918, 78.910 117.294, 79.208 118.840 C 79.526 120.491, 80.861 121.452, 91.250 127.504 L 97 130.854 97 121.927 L 97 113 94.250 113.116 C 92.737 113.180, 90.600 113.425, 89.500 113.661" stroke="none" fill-rule="evenodd"></path>
</g><path xmlns="http://www.w3.org/2000/svg" id="SvgjsPath26485511" d="M14.52 0.79Q11.62 0.79 9.17 0.26Q6.73-0.26 5.15-0.89Q3.56-1.52 3.56-1.58L3.56-1.58L3.17-2.38Q3.23-2.77 3.43-4.29Q3.63-5.81 3.86-8.45Q4.09-11.09 4.09-13.73L4.09-13.73L8.12-14.06Q8.12-9.70 8.78-7.49Q9.44-5.28 11.12-4.42Q12.80-3.56 16.17-3.56L16.17-3.56Q19.87-3.56 22.11-5.28Q24.35-7.00 24.35-9.90L24.35-9.90Q24.35-12.41 22.21-14.09Q20.06-15.77 15.71-17.95L15.71-17.95Q15.51-18.08 14.45-18.61L14.45-18.61Q9.44-21.12 6.63-23.69Q3.83-26.27 3.83-30.29L3.83-30.29Q3.83-33.86 5.94-36.76Q8.05-39.67 11.75-41.32Q15.44-42.97 20.06-42.97L20.06-42.97Q22.77-42.97 25.15-42.57Q27.52-42.17 28.94-41.78Q30.36-41.38 30.69-41.25L30.69-41.25L30.95-40.66Q30.76-39.73 30.23-36.47Q29.70-33.20 29.44-29.44L29.44-29.44L25.87-29.11L25.34-29.50Q25.41-29.70 25.48-30.56Q25.54-31.42 25.54-32.47L25.54-32.47Q25.54-35.71 23.93-36.99Q22.31-38.28 18.28-38.28L18.28-38.28Q15.05-38.28 12.94-36.66Q10.82-35.05 10.82-32.60L10.82-32.60Q10.82-30.10 13.00-28.38Q15.18-26.66 19.67-24.42L19.67-24.42Q23.63-22.44 25.97-20.99Q28.31-19.54 30.00-17.36Q31.68-15.18 31.68-12.28L31.68-12.28Q31.68-8.45 29.54-5.48Q27.39-2.51 23.50-0.86Q19.60 0.79 14.52 0.79L14.52 0.79ZM38.21 0.53L38.61-2.64Q41.05-3.10 41.84-3.96Q42.64-4.82 42.64-7.00L42.64-7.00L42.70-27.13Q42.70-28.78 42.31-29.34Q41.91-29.90 40.72-29.90L40.72-29.90L38.74-29.83L38.54-30.23L38.87-33.07Q40.06-33.07 41.05-33L41.05-33L46.07-32.93Q47.59-32.93 50.06-33.10Q52.54-33.26 53.33-33.33L53.33-33.33L53.06-30.16Q50.95-29.90 50.26-29.37Q49.57-28.84 49.43-27.32L49.43-27.32Q48.77-14.39 48.77-6.60L48.77-6.60Q48.77-4.49 49.20-3.76Q49.63-3.04 50.95-3.04L50.95-3.04Q51.88-3.04 52.57-3.10Q53.26-3.17 53.46-3.23L53.46-3.23L53.66-2.90L53.20 0.13Q52.34 0.13 50.00 0.07Q47.65 0 45.41 0L45.41 0Q43.56 0 41.25 0.23Q38.94 0.46 38.21 0.53L38.21 0.53ZM66.73 0Q64.94 0 62.54 0.23Q60.13 0.46 59.40 0.53L59.40 0.53L59.73-2.64Q62.17-3.10 62.96-3.93Q63.76-4.75 63.76-6.86L63.76-6.86L63.82-27.26Q63.82-28.78 63.46-29.34Q63.10-29.90 62.04-29.90L62.04-29.90L60.19-29.83L59.86-30.16L60.32-33.07Q61.18-33.07 63.33-33Q65.47-32.93 67.39-32.93L67.39-32.93Q69.43-32.93 71.81-33.07Q74.18-33.20 75.11-33.26L75.11-33.26Q80.59-33.26 83.49-31.22Q86.39-29.17 86.39-25.28L86.39-25.28Q86.39-22.44 84.61-20.36Q82.83-18.28 80.45-17.36L80.45-17.36Q83.56-16.76 85.93-14.78Q88.31-12.80 88.31-9.70L88.31-9.70Q88.31-6.73 86.56-4.42Q84.81-2.11 81.68-0.79Q78.54 0.53 74.65 0.53L74.65 0.53Q73.79 0.53 71.28 0.26L71.28 0.26Q68.11 0 66.73 0L66.73 0ZM70.22-18.74Q70.95-18.68 72.63-18.55Q74.32-18.41 75.57-18.35L75.57-18.35Q75.57-18.22 76.73-18.84Q77.88-19.47 78.80-20.76Q79.73-22.04 79.73-24.09L79.73-24.09Q79.73-26.80 77.75-28.12Q75.77-29.44 71.61-29.44L71.61-29.44Q71.08-29.44 70.92-29.24Q70.75-29.04 70.69-28.45L70.69-28.45Q70.36-24.82 70.22-18.74L70.22-18.74ZM70.09-14.65L69.89-6.60Q69.89-4.88 71.12-4.19Q72.34-3.50 75.31-3.50L75.31-3.50Q78.14-3.50 79.73-4.92Q81.31-6.34 81.31-8.91L81.31-8.91Q81.31-11.15 79.79-12.64Q78.28-14.12 75.31-14.65L75.31-14.65L70.09-14.65ZM116.69 1.19Q112.27-12.14 105.14-32.27L105.14-32.27L104.68-32.27Q104.68-31.55 103.82-21.25L103.82-21.25Q102.70-6.40 102.70-5.54L102.70-5.54Q102.70-3.50 104.81-3.50L104.81-3.50L107.32-3.56L107.51-3.23L106.85 0.26L105.14 0.20Q100.39 0 99.86 0L99.86 0Q98.34 0 96.36 0.23Q94.38 0.46 93.79 0.53L93.79 0.53L94.18-3.10Q96.16-3.30 97.05-4.36Q97.94-5.41 98.27-8.05L98.27-8.05Q98.93-13.73 99.99-24.09Q101.05-34.45 101.05-35.64L101.05-35.64Q101.05-37.42 99.86-38.18Q98.67-38.94 95.70-39.14L95.70-39.14L95.44-39.53L95.96-42.50Q100.91-42.17 103.62-42.17L103.62-42.17Q104.08-42.17 107.84-42.37L107.84-42.37L109.30-42.44Q112.93-30.29 118.34-14.45L118.34-14.45L119.20-12.01L119.59-12.01Q120.38-14.32 120.85-15.64L120.85-15.64Q125.86-29.90 129.89-42.31L129.89-42.31Q130.68-42.31 131.27-42.24L131.27-42.24Q134.24-42.11 135.76-42.17L135.76-42.17Q137.21-42.17 139.79-42.37Q142.36-42.57 142.76-42.57L142.76-42.57L142.96-42.31L142.56-39.20Q139.72-38.87 138.60-38.08Q137.48-37.29 137.48-35.64L137.48-35.64Q137.48-33.86 138.07-24.98Q138.67-16.10 139.19-9.64L139.19-9.64Q139.46-7.06 139.79-5.78Q140.12-4.49 140.71-3.99Q141.31-3.50 142.36-3.50L142.36-3.50Q142.96-3.50 143.55-3.56Q144.14-3.63 144.21-3.63L144.21-3.63L144.41-3.30L143.81 0.20Q143.48 0.20 141.27 0.10Q139.06 0 137.41 0L137.41 0Q135.04 0 132.26 0.26Q129.49 0.53 129.36 0.53L129.36 0.53L129.76-3.10Q131.74-3.37 132.63-4.13Q133.52-4.88 133.52-6.40L133.52-6.40Q133.52-7.19 133.12-12.74Q132.73-18.28 132.46-21.78L132.46-21.78Q131.67-31.81 131.67-32.27L131.67-32.27L131.21-32.27Q123.95-12.14 119.59 0.66L119.59 0.66L116.69 1.19ZM150.02 0.53L150.35-2.71Q152.66-2.97 153.52-3.93Q154.37-4.88 154.37-7.13L154.37-7.13L154.44-27.13Q154.44-28.78 154.08-29.34Q153.71-29.90 152.59-29.90L152.59-29.90L150.88-29.83L150.61-30.16L151.07-33.07Q152.00-33.07 154.60-33Q157.21-32.93 160.25-32.93L160.25-32.93Q171.67-32.93 176.68-33.53L176.68-33.53L177.01-33.13Q176.88-32.34 176.42-29.63Q175.96-26.93 175.76-23.89L175.76-23.89L171.53-23.63Q171.53-23.83 171.60-24.45Q171.67-25.08 171.67-25.74L171.67-25.74Q171.67-27.32 171.20-27.98Q170.74-28.64 169.29-28.88Q167.84-29.11 164.41-29.11L164.41-29.11Q162.89-29.11 162.26-28.97Q161.63-28.84 161.44-28.51Q161.24-28.18 161.24-27.32L161.24-27.32L160.84-18.81L165.99-18.74Q167.18-18.74 169.46-18.98Q171.73-19.21 172.46-19.27L172.46-19.27L172.79-18.81L172.00-14.78Q171.27-14.78 169.19-14.85Q167.11-14.92 164.80-14.92L164.80-14.92Q163.09-14.92 160.64-14.59L160.64-14.59Q160.51-10.36 160.51-6.73L160.51-6.73Q160.51-5.28 160.74-4.65Q160.97-4.03 161.70-3.83Q162.43-3.63 164.21-3.63L164.21-3.63Q168.04-3.63 169.72-4.03Q171.40-4.42 172.13-5.61Q172.85-6.80 173.32-9.64L173.32-9.64L177.14-9.90L177.54-9.50Q177.34-8.71 176.85-5.94Q176.35-3.17 176.09-0.13L176.09-0.13L175.56 0.33Q173.84 0.26 168.27 0.13Q162.69 0 158.80 0L158.80 0Q155.89 0 153.32 0.23Q150.74 0.46 150.02 0.53L150.02 0.53ZM198.53 0.59Q197.67 0.46 195.00 0.23Q192.32 0 190.48 0L190.48 0Q188.69 0 186.55 0.23Q184.40 0.46 183.74 0.53L183.74 0.53L184.07-2.71Q186.45-3.10 187.28-4.03Q188.10-4.95 188.10-7.06L188.10-7.06L188.10-27.13Q188.10-28.71 187.74-29.30Q187.37-29.90 186.32-29.90L186.32-29.90Q185.79-29.90 185.26-29.83Q184.73-29.77 184.54-29.77L184.54-29.77L184.27-30.16L184.73-33.07Q185.46-33.07 187.37-33Q189.29-32.93 191.20-32.93L191.20-32.93Q193.58-32.93 196.15-33.03Q198.73-33.13 199.72-33.20L199.72-33.20Q207.90-33.20 212.62-29.07Q217.34-24.95 217.34-17.75L217.34-17.75Q217.34-12.47 214.90-8.28Q212.45-4.09 208.20-1.75Q203.94 0.59 198.53 0.59L198.53 0.59ZM196.55-29.24Q195.62-29.24 195.29-28.97Q194.96-28.71 194.90-27.98L194.90-27.98Q194.17-13.27 194.17-7.33L194.17-7.33Q194.17-5.02 195.23-4.19Q196.28-3.37 199.39-3.37L199.39-3.37Q204.47-3.37 207.21-6.70Q209.95-10.03 209.95-16.30L209.95-16.30Q209.95-22.84 206.61-26.04Q203.28-29.24 196.55-29.24L196.55-29.24Z" fill="#000000" fontsize="66" transform="matrix(1,0,0,1,184.83,275.89)"></path></svg>