<svg width="72" height="72" viewBox="0 0 72 72" fill="none" xmlns="http://www.w3.org/2000/svg">
<path d="M72 40.9286H61.2857C61.2857 24.2417 47.7583 10.7143 31.0714 10.7143V0C53.6756 0 72 18.3244 72 40.9286ZM31.0714 10.7143V21.4286C19.8285 21.4286 10.7143 30.5428 10.7143 41.7857H0C0 24.6255 13.9112 10.7143 31.0714 10.7143ZM30.2143 72V61.2857C41.4573 61.2857 50.5714 52.1716 50.5714 40.9286H61.2857C61.2857 58.089 47.3746 72 30.2143 72ZM10.7143 41.7857H21.4286C21.4286 47.1106 24.888 50.5693 30.2143 50.5693V61.2836C18.9711 61.2836 10.7143 53.0285 10.7143 41.7857Z" fill="#1F50FE"/>
</svg>
