<svg width="99" height="48" viewBox="0 0 99 48" fill="none" xmlns="http://www.w3.org/2000/svg">
<path d="M51.07 41.6143C49.1679 41.4875 46.9746 41.154 45.2447 40.6531C44.9207 40.5591 43.579 40.066 43.2377 39.9095C37.2152 37.1197 33.0197 31.0299 33.0197 23.9648C33.0197 14.2743 40.9036 6.381 50.6003 6.381C60.211 6.381 68.0416 14.1397 68.1763 23.7206H74.5275C74.3929 10.6392 63.7146 0.0375748 50.6003 0.0375748C37.4078 0.0375748 26.67 10.7691 26.67 23.9648C26.67 33.0619 31.786 40.974 39.277 45.0161C40.6296 45.7316 42.5708 46.4689 43.2299 46.6709C45.3653 47.3065 47.9859 47.7292 50.3185 47.9061C51.1107 47.9656 53.8769 47.9969 54.6832 48H98.4203V41.6738H54.7567C54.1759 41.6738 51.6382 41.6519 51.07 41.6143ZM54.7567 31.6812C54.2949 31.6812 51.8793 31.6655 51.4332 31.6279C50.677 31.5637 49.5812 31.451 48.8767 31.2898C48.0814 31.0769 47.3347 30.7951 46.9981 30.6104C44.6389 29.3345 43.0311 26.839 43.0311 23.9648C43.0311 19.7833 46.4173 16.3924 50.6003 16.3924C54.6957 16.3924 58.0255 19.6502 58.1586 23.7206H64.2609C64.1325 16.2844 58.0709 10.2916 50.6003 10.2916C43.0467 10.2916 36.924 16.4128 36.924 23.9648C36.924 29.2906 39.9768 33.8901 44.4228 36.1429C45.1069 36.5436 46.3938 36.9632 46.7601 37.0587C48.0157 37.389 49.7017 37.6144 51.07 37.7146C51.5756 37.7569 54.0522 37.7757 54.5751 37.7788V37.7882H98.4187V31.6812H54.7567ZM22.7562 47.9765H16.3627V6.3951H7.01973V0H22.7562V47.9765ZM0 9.5903V15.7396H7.01973V47.9765H13.1628V9.5903H0Z" fill="#D01C28"/>
</svg>
