<svg width="120" height="120" viewBox="0 0 120 120" fill="none" xmlns="http://www.w3.org/2000/svg">
<g clip-path="url(#clip0_0_109)">
<g opacity="0.9">
<path d="M59.9983 93.9102C78.7251 93.9102 93.9103 78.7268 93.9103 59.9982C93.9103 41.2713 78.7251 26.0862 59.9983 26.0862C41.2697 26.0862 26.0863 41.2713 26.0863 59.9982C26.0863 78.7268 41.2697 93.9102 59.9983 93.9102ZM59.9983 27.3582C78.0257 27.3582 92.6383 41.9708 92.6383 59.9982C92.6383 78.0273 78.0257 92.6399 59.9983 92.6399C41.9691 92.6399 27.3583 78.0273 27.3583 59.9999C27.3583 41.9708 41.9691 27.3582 59.9983 27.3582Z" fill="#1A233B"/>
<path d="M60 0C26.8629 0 0 26.8629 0 60C0 93.1371 26.8629 120 60 120C93.1371 120 120 93.1371 120 60C120 26.8629 93.1371 0 60 0ZM60 117.751C28.1057 117.751 2.24914 91.8943 2.24914 60C2.24914 28.1057 28.1057 2.24914 60 2.24914C91.8943 2.24914 117.751 28.1057 117.751 60C117.751 91.8943 91.8943 117.751 60 117.751Z" fill="#1A233B"/>
<path d="M61.8891 101.073C61.5393 101.083 61.1919 101.133 60.8537 101.223L61.0183 104.53C61.2977 104.565 61.5857 104.565 61.8651 104.53C63.2023 104.463 63.9909 103.745 63.9343 102.607C63.8829 101.573 63.1406 101.011 61.8891 101.073ZM70.92 99.6858H70.8891C70.9114 100.366 70.9834 101.222 70.9869 101.892V104.343L73.3491 103.668L72.0326 101.585C71.6777 101.019 71.2594 100.282 70.92 99.6858ZM87.5777 29.004C89.2491 30.5538 91.1914 30.6292 92.9863 28.6629C94.56 26.9675 94.404 25.1538 92.784 23.6932C92.5067 23.4302 92.2021 23.1974 91.8754 22.9989L86.9623 28.38C87.148 28.6064 87.354 28.8152 87.5777 29.004ZM44.1686 17.2132C45.3497 16.7932 45.84 15.9566 45.5194 15.036C45.1989 14.1138 44.3537 13.8172 43.2566 14.1703C42.8936 14.2969 42.5425 14.4552 42.2074 14.6435L43.2326 17.544L44.1686 17.2132Z" fill="#1A233B"/>
<path d="M60 4.3457C29.2628 4.3457 4.3457 29.2628 4.3457 60C4.3457 90.7371 29.2628 115.651 60 115.651C90.7371 115.651 115.653 90.7337 115.653 59.9966C115.653 29.2628 90.7371 4.3457 60 4.3457ZM93.888 22.0851C95.4514 23.5028 96.2074 24.7166 96.4526 26.04C96.732 27.4577 96.3446 28.9543 95.0348 30.4046C93.6188 31.9834 92.0348 32.5457 90.6291 32.4891C89.1068 32.4171 87.4766 31.5446 85.8651 30.0891C85.1535 29.4519 84.4863 28.7669 83.868 28.0388L91.2377 19.9646C92.172 20.6023 93.06 21.3103 93.888 22.0851ZM88.0526 17.6623L87.0566 19.4691L83.2526 17.3657L82.1331 19.3697L85.7194 21.3531L84.7268 23.148L81.1406 21.1646L79.8411 23.4943L83.8474 25.7091L82.8463 27.5194L76.6491 24.0943L82.044 14.3468L88.0526 17.6623ZM78.7886 13.0337L75.0086 23.4977L72.6463 22.6388L76.4263 12.1697L78.7886 13.0337ZM66.6857 9.83999L73.3646 11.1394L72.972 13.1657L68.772 12.348L68.3006 14.8474L72.2126 15.5897L71.8097 17.6211L67.884 16.86L67.0388 21.2588L64.5583 20.7874L66.6857 9.83999ZM60.6857 9.50399L63.2074 9.59827L62.7926 20.724L60.2691 20.6348L60.684 9.50399H60.6857ZM96.5177 60C96.5177 80.1686 80.1668 96.5211 59.9983 96.5211C39.8297 96.5211 23.4806 80.1686 23.4806 60C23.4806 39.8314 39.8314 23.4771 60 23.4771C80.1686 23.4771 96.5194 39.8314 96.5194 60H96.5177ZM58.0063 9.37713L58.26 11.4806L55.2428 11.8457L56.3228 20.8217L53.8148 21.1234L52.7348 12.1714L49.7623 12.5314L49.512 10.3937L58.0063 9.37885V9.37713ZM42.372 12.5246C43.9268 11.9726 45.0977 11.8217 46.0577 12.1526C46.8977 12.4594 47.5406 13.1486 47.796 14.004C47.9896 14.5758 48.0028 15.1932 47.8338 15.7727C47.6649 16.3522 47.3219 16.8658 46.8514 17.244V17.292C47.688 17.3297 48.3394 17.8868 48.9428 18.7611C49.6903 19.8291 50.5028 21.0857 50.8337 21.4166L48.4063 22.2771C47.8026 21.6027 47.2674 20.87 46.8086 20.0897C46.068 18.8794 45.4868 18.672 44.5183 19.0063L43.7983 19.2583L45.2554 23.3863L42.8931 24.2177L39.2828 13.8583C40.2775 13.3366 41.3102 12.8908 42.372 12.5246ZM35.8388 15.36L36.9308 17.112L33.2366 19.4091L34.4537 21.3737L37.9371 19.2291L39.0171 20.9674L35.5371 23.1497L36.9531 25.3954L40.8188 22.9611L41.9091 24.7183L35.8714 28.4657L30 19.0166L35.8388 15.36ZM25.1948 22.7486C25.8473 22.074 26.6347 21.5448 27.5057 21.1954L28.5308 22.9851C27.8588 23.2543 27.2451 23.6554 26.7257 24.1611C25.308 25.5788 25.02 27.5023 26.7257 29.2783C28.2806 30.8794 30.2074 30.9651 31.8171 29.4017C32.3331 28.8994 32.7531 28.3183 33.0703 27.6771L34.7331 28.8206C34.3271 29.717 33.742 30.5209 33.0137 31.1828C30.2537 33.8657 27.1646 33.5434 24.9531 31.2514C22.308 28.5034 22.776 25.0971 25.1948 22.7486ZM26.9948 95.2868C27.4954 95.8011 28.0766 96.228 28.7143 96.5486L27.5623 98.184C26.6746 97.7768 25.8812 97.1895 25.2326 96.4594C22.5634 93.6908 22.908 90.5966 25.1948 88.3937C27.9308 85.7589 31.3371 86.2406 33.6977 88.668C34.3748 89.3194 34.8977 90.108 35.244 90.9823L33.4491 92.004C33.1827 91.3285 32.7841 90.713 32.2766 90.1937C30.8931 88.7777 28.968 88.4743 27.1594 90.1937C25.512 91.7434 25.4366 93.672 26.9948 95.2868ZM33.8777 103.221C31.0663 101.486 30.7268 98.3486 32.3897 95.6606C34.1383 92.8251 37.26 91.8103 40.0628 93.5349C42.972 95.3246 43.2223 98.4857 41.6126 101.095C39.684 104.198 36.6514 104.925 33.8777 103.221ZM54.372 110.506L51.9686 109.929L52.8034 105.746C53.0691 104.434 53.3948 102.847 53.7497 101.273H53.7017C53.0137 102.603 52.2761 103.907 51.4903 105.182L49.1623 109.087L47.2714 108.615L47.1206 104.146C47.0687 102.658 47.0801 101.168 47.1548 99.6806H47.1206C46.7057 101.127 46.2566 102.785 45.8554 104.117L44.6828 108.19L42.42 107.647L45.7286 96.9788L48.9857 97.7623L49.1811 101.633C49.2188 102.97 49.2326 104.397 49.1811 105.723H49.2274C49.8377 104.542 50.5508 103.202 51.1937 102.081L53.2114 98.7737L56.4086 99.54L54.372 110.506ZM65.532 105.11C64.7143 105.96 63.4628 106.39 61.9783 106.464C61.6923 106.483 61.4054 106.483 61.1194 106.464L61.3183 110.443L58.8274 110.566L58.2754 99.5948C59.3897 99.3703 60.5246 99.2331 61.6628 99.1954C63.2126 99.1148 64.332 99.36 65.1068 99.912C65.9057 100.509 66.3926 101.429 66.4251 102.427C66.5108 103.404 66.1851 104.378 65.532 105.11ZM75.84 107.906L74.2286 105.393L71.1634 106.267V109.233L68.6537 109.953L68.8714 98.3057L72.0514 97.404L78.4251 107.165L75.84 107.906ZM87.5863 102.105L83.3057 99.6874C82.0313 98.9718 80.7948 98.1907 79.6011 97.3474L79.5668 97.3851C80.3948 98.604 81.2451 99.9223 82.1948 101.472L83.952 104.33L81.9806 105.54L76.1468 96.0531L78.6566 94.512L82.7623 96.78C83.9948 97.4657 85.1794 98.2354 86.3108 99.0806L86.352 99.0531C85.4103 97.8228 84.5381 96.5408 83.7394 95.2131L82.0337 92.4394L84.0051 91.224L89.8337 100.716L87.5863 102.105ZM94.7948 96.1937L91.4863 93.0291L84.3068 91.0028L86.3006 88.9337L89.0211 89.9674C89.844 90.2794 90.4388 90.5246 91.152 90.828V90.804C90.8152 90.1181 90.5002 89.4218 90.2074 88.716L89.0554 86.052L91.02 84.0154L93.1937 91.1811L96.5366 94.404L94.7948 96.1937Z" fill="#1A233B"/>
<path d="M38.9571 95.1874C37.5069 94.296 35.8149 95.1531 34.7057 96.996C33.5949 98.8389 33.6274 100.701 35.0657 101.583C36.5006 102.468 38.1926 101.583 39.3171 99.7663C40.3509 98.0606 40.4366 96.0943 38.9571 95.1874ZM36.1491 59.3314C35.7772 59.5331 35.3524 59.6156 34.932 59.568H34.0389V61.9303H44.7531V59.568H43.8737C43.4485 59.6188 43.0179 59.5368 42.6411 59.3331C42.4611 59.1771 42.3669 58.7743 42.3669 58.1366V49.0149C42.3669 48.3806 42.4577 47.9846 42.636 47.8286C43.0131 47.6211 43.4451 47.5354 43.8737 47.5886H44.7531V45.2229H34.0389V47.5851H34.9303C35.3554 47.5337 35.7806 47.6194 36.1543 47.8251C36.3343 47.9829 36.4234 48.3789 36.4234 49.0131V58.1349C36.4234 58.7726 36.3343 59.1754 36.1491 59.3314ZM48.3857 54.0977C48.8537 54.3943 49.3594 54.6309 49.884 54.8006C50.5731 55.0509 51.5571 55.3594 52.836 55.7126C53.2303 55.8257 53.7823 55.9697 54.4611 56.1377C56.5869 56.6811 57.6497 57.3566 57.6497 58.1606C57.6522 58.4172 57.585 58.6696 57.4551 58.8909C57.3253 59.1123 57.1378 59.2941 56.9126 59.4171C56.3215 59.7628 55.642 59.9273 54.9583 59.8903C53.7027 59.918 52.4723 59.5365 51.4526 58.8034C50.4373 58.048 49.6891 56.9888 49.3166 55.7794H46.7229V62.0057H49.1897L49.8549 61.0611C51.7351 61.9604 53.7946 62.4223 55.8789 62.412C58.2137 62.412 60.0703 61.9114 61.4451 60.9103C62.1004 60.466 62.6334 59.864 62.9949 59.1597C63.3565 58.4554 63.5351 57.6714 63.5143 56.88C63.5415 56.19 63.4031 55.5036 63.1105 54.8781C62.8179 54.2527 62.3797 53.7064 61.8326 53.2851C60.7114 52.4057 58.7606 51.6686 55.9834 51.0789C55.7143 51.0223 55.332 50.9417 54.84 50.8474C52.8463 50.4634 51.8486 49.8977 51.8486 49.1554C51.8578 48.8955 51.9351 48.6426 52.0729 48.422C52.2108 48.2015 52.4041 48.0211 52.6337 47.8989C53.2286 47.5389 53.9194 47.3606 54.6171 47.388C55.7834 47.328 56.9395 47.6317 57.9257 48.2571C58.7897 48.9051 59.3897 49.8446 59.6057 50.904H62.6349V45.1303H60.0514L59.5783 45.9703C58.6731 45.5465 57.7215 45.2301 56.7429 45.0274C55.7121 44.8183 54.6626 44.715 53.6109 44.7189C51.4046 44.7189 49.6337 45.2331 48.2914 46.2651C47.6511 46.7282 47.1329 47.34 46.7815 48.0477C46.43 48.7554 46.2557 49.538 46.2737 50.328C46.2514 51.0651 46.4211 51.792 46.7709 52.4383C47.1771 53.1051 47.7309 53.6726 48.3857 54.0977ZM67.0851 60.0823C68.9331 61.656 71.4789 62.4446 74.7257 62.4446C77.9709 62.4446 80.5406 61.656 82.4263 60.0823C84.2777 58.5103 85.2034 56.3417 85.2086 53.5869C85.2137 50.832 84.288 48.6634 82.4314 47.0811C80.5834 45.5074 78.0326 44.7189 74.7771 44.7189C71.5217 44.7189 68.9606 45.5074 67.0903 47.0811C65.2389 48.6549 64.3131 50.8234 64.3131 53.5869C64.3131 56.3503 65.2389 58.512 67.0851 60.0823ZM72.1217 48.744C72.3759 48.268 72.7611 47.8746 73.2316 47.6104C73.7021 47.3461 74.2384 47.222 74.7771 47.2526C75.3157 47.2216 75.8517 47.3479 76.3198 47.616C76.7879 47.8842 77.168 48.2826 77.4137 48.7629C77.9657 49.7691 78.2451 51.3806 78.24 53.6006C78.24 55.8069 77.9657 57.4097 77.4137 58.3971C77.1376 58.8523 76.7488 59.2287 76.2849 59.4899C75.821 59.7511 75.2976 59.8883 74.7651 59.8883C74.2327 59.8883 73.7093 59.7511 73.2454 59.4899C72.7815 59.2287 72.3927 58.8523 72.1166 58.3971C71.5646 57.3994 71.2903 55.7846 71.2903 53.5457C71.2903 51.3051 71.5697 49.7126 72.1303 48.7629L72.1217 48.744ZM37.716 65.3366C37.4008 65.3251 37.0864 65.3759 36.7908 65.486C36.4952 65.5962 36.2243 65.7635 35.9934 65.9784C35.7625 66.1934 35.5763 66.4517 35.4454 66.7387C35.3144 67.0257 35.2413 67.3356 35.2303 67.6509V67.6989C35.2099 68.2246 35.399 68.7369 35.7561 69.1233C36.1132 69.5097 36.6091 69.7385 37.1349 69.7594H37.2909C37.7777 69.7971 38.256 69.6223 38.6109 69.2863H38.6417C38.5276 69.7913 38.2254 70.2339 37.7966 70.524C37.404 70.7691 36.9566 70.9114 36.4937 70.9303C36.2709 70.9543 36.048 70.9543 35.8251 70.9303V72.1406C36.0583 72.1543 36.2949 72.1543 36.5263 72.1406C37.4469 72.1406 38.34 71.8149 39.0446 71.2183C39.8469 70.4194 40.2669 69.3154 40.2017 68.1806C40.2154 66.636 39.4131 65.3366 37.716 65.3366ZM38.5629 68.2423C38.4691 68.3819 38.341 68.4951 38.1909 68.5711C38.0408 68.647 37.8738 68.6831 37.7057 68.676C37.5818 68.6767 37.4589 68.6529 37.3441 68.606C37.2293 68.5592 37.125 68.4901 37.0369 68.4029C36.9488 68.3156 36.8789 68.2119 36.831 68.0975C36.7831 67.9832 36.7582 67.8605 36.7577 67.7366C36.7577 67.6989 36.7577 67.6611 36.7629 67.6234C36.7629 66.9326 37.14 66.4663 37.6697 66.4663C38.3691 66.4663 38.6126 67.1554 38.6126 67.8549C38.6288 67.9863 38.6111 68.1197 38.5611 68.2423H38.5629ZM41.1326 68.76C41.1326 70.6509 41.8937 72.1611 43.5994 72.1611C45.3051 72.1611 46.1074 70.7451 46.1074 68.7223C46.1074 66.9137 45.4183 65.34 43.6509 65.34C41.8851 65.34 41.1326 66.852 41.1326 68.76ZM44.568 68.76C44.568 70.2634 44.2423 71.0143 43.6217 71.0143C43.0046 71.0143 42.6789 70.2943 42.6789 68.7789C42.6789 67.2634 43.056 66.5263 43.6217 66.5263C44.1891 66.5263 44.568 67.2806 44.568 68.7411V68.76ZM49.5411 65.34C47.8354 65.34 47.0211 66.852 47.0211 68.76C47.0211 70.6697 47.7823 72.1611 49.4931 72.1611C51.204 72.1611 51.996 70.7451 51.996 68.7223C51.996 66.9137 51.3069 65.34 49.5411 65.34ZM49.5411 71.0091C48.9411 71.0091 48.5949 70.2909 48.5949 68.7754C48.5949 67.2583 48.972 66.5211 49.5411 66.5211C50.1069 66.5211 50.484 67.296 50.484 68.7549C50.484 70.2154 50.1309 70.9954 49.5309 70.9954L49.5411 71.0091ZM53.4514 66.264L53.7017 67.4211L54.9634 66.8211H54.9806V72.0497H56.4737V65.4497H55.1949L53.4514 66.264ZM61.4349 68.8697H58.7743V69.8949H61.4349V68.8697ZM64.6149 70.7623L65.2234 70.2514C66.1697 69.4011 66.9823 68.5183 66.9823 67.4177C66.9823 66.2177 66.1594 65.3434 64.668 65.3434C63.8925 65.3355 63.1344 65.5738 62.5029 66.024L62.9383 67.128C63.3394 66.7971 63.8349 66.6086 64.3543 66.5794C65.1154 66.5794 65.4411 67.0097 65.4411 67.5497C65.4411 68.3194 64.7194 69.06 63.2777 70.3509L62.4274 71.1223V72.0651H67.0851V70.7949H64.596L64.6149 70.7623ZM70.7246 65.34C69.0189 65.34 68.2063 66.852 68.2063 68.76C68.2063 70.6697 68.9726 72.1611 70.6766 72.1611C72.3823 72.1611 73.1863 70.7451 73.1863 68.7223C73.1863 66.9137 72.492 65.34 70.7246 65.34ZM70.7246 71.0091C70.1297 71.0091 69.78 70.2909 69.78 68.7754C69.78 67.2583 70.1571 66.5211 70.7246 66.5211C71.2903 66.5211 71.6691 67.296 71.6691 68.7549C71.6691 70.2154 71.3383 70.9954 70.716 70.9954L70.7246 71.0091ZM74.6349 66.264L74.8851 67.4211L76.1469 66.8211H76.1657V72.0497H77.6571V65.4497H76.3783L74.6349 66.264ZM83.952 68.1943C83.4377 67.8617 82.8326 67.6971 82.2189 67.7211C82.0756 67.7117 81.9318 67.7117 81.7886 67.7211L81.9291 66.7046H84.4903V65.4394H80.856L80.4189 68.9023C80.7154 68.8594 81.0137 68.8354 81.3103 68.8406C82.6337 68.8406 83.172 69.2554 83.172 69.9377C83.172 70.6166 82.4914 70.9423 81.8503 70.9423C81.3356 70.9363 80.8276 70.8254 80.3571 70.6166L80.0829 71.7737C80.6589 72.0343 81.288 72.1611 81.9206 72.1474C83.6966 72.1474 84.756 71.0606 84.756 69.8331C84.7886 69.1851 84.4817 68.5663 83.9503 68.1926L83.952 68.1943Z" fill="#1A233B"/>
</g>
</g>
<defs>
<clipPath id="clip0_0_109">
<rect width="120" height="120" fill="white"/>
</clipPath>
</defs>
</svg>
