<svg width="120" height="120" viewBox="0 0 120 120" fill="none" xmlns="http://www.w3.org/2000/svg">
<g clip-path="url(#clip0_0_784)">
<g opacity="0.9">
<path d="M59.9983 93.9102C78.7251 93.9102 93.9103 78.7268 93.9103 59.9982C93.9103 41.2713 78.7251 26.0862 59.9983 26.0862C41.2697 26.0862 26.0863 41.2713 26.0863 59.9982C26.0863 78.7268 41.2697 93.9102 59.9983 93.9102ZM59.9983 27.3582C78.0257 27.3582 92.6383 41.9708 92.6383 59.9982C92.6383 78.0273 78.0257 92.6399 59.9983 92.6399C41.9691 92.6399 27.3583 78.0273 27.3583 59.9999C27.3583 41.9708 41.9691 27.3582 59.9983 27.3582Z" fill="#1A233B"/>
<path d="M60 0C26.8629 0 0 26.8629 0 60C0 93.1371 26.8629 120 60 120C93.1371 120 120 93.1371 120 60C120 26.8629 93.1371 0 60 0ZM60 117.751C28.1057 117.751 2.24914 91.8943 2.24914 60C2.24914 28.1057 28.1057 2.24914 60 2.24914C91.8943 2.24914 117.751 28.1057 117.751 60C117.751 91.8943 91.8943 117.751 60 117.751Z" fill="#1A233B"/>
<path d="M61.8891 101.073C61.5393 101.083 61.1919 101.133 60.8537 101.223L61.0183 104.53C61.2977 104.565 61.5857 104.565 61.8651 104.53C63.2023 104.463 63.9909 103.745 63.9343 102.607C63.8829 101.573 63.1406 101.011 61.8891 101.073ZM70.92 99.6858H70.8891C70.9114 100.366 70.9834 101.222 70.9869 101.892V104.343L73.3491 103.668L72.0326 101.585C71.6777 101.019 71.2594 100.282 70.92 99.6858ZM87.5777 29.004C89.2491 30.5538 91.1914 30.6292 92.9863 28.6629C94.56 26.9675 94.404 25.1538 92.784 23.6932C92.5067 23.4302 92.2021 23.1974 91.8754 22.9989L86.9623 28.38C87.148 28.6064 87.354 28.8152 87.5777 29.004ZM44.1686 17.2132C45.3497 16.7932 45.84 15.9566 45.5194 15.036C45.1989 14.1138 44.3537 13.8172 43.2566 14.1703C42.8936 14.2969 42.5425 14.4552 42.2074 14.6435L43.2326 17.544L44.1686 17.2132Z" fill="#1A233B"/>
<path d="M60 4.3457C29.2629 4.3457 4.34572 29.2628 4.34572 60C4.34572 90.7371 29.2629 115.651 60 115.651C90.7371 115.651 115.653 90.7337 115.653 59.9966C115.653 29.2628 90.7371 4.3457 60 4.3457ZM93.888 22.0851C95.4514 23.5028 96.2074 24.7166 96.4526 26.04C96.732 27.4577 96.3446 28.9543 95.0349 30.4046C93.6189 31.9834 92.0349 32.5457 90.6291 32.4891C89.1069 32.4171 87.4766 31.5446 85.8651 30.0891C85.1535 29.4519 84.4863 28.7669 83.868 28.0388L91.2377 19.9646C92.172 20.6023 93.06 21.3103 93.888 22.0851ZM88.0526 17.6623L87.0566 19.4691L83.2526 17.3657L82.1331 19.3697L85.7194 21.3531L84.7269 23.148L81.1406 21.1646L79.8411 23.4943L83.8474 25.7091L82.8463 27.5194L76.6491 24.0943L82.044 14.3468L88.0526 17.6623ZM78.7886 13.0337L75.0086 23.4977L72.6463 22.6388L76.4263 12.1697L78.7886 13.0337ZM66.6857 9.83999L73.3646 11.1394L72.972 13.1657L68.772 12.348L68.3006 14.8474L72.2126 15.5897L71.8097 17.6211L67.884 16.86L67.0389 21.2588L64.5583 20.7874L66.6857 9.83999ZM60.6857 9.50399L63.2074 9.59827L62.7926 20.724L60.2691 20.6348L60.684 9.50399H60.6857ZM96.5177 60C96.5177 80.1686 80.1669 96.5211 59.9983 96.5211C39.8297 96.5211 23.4806 80.1686 23.4806 60C23.4806 39.8314 39.8314 23.4771 60 23.4771C80.1686 23.4771 96.5194 39.8314 96.5194 60H96.5177ZM58.0063 9.37713L58.26 11.4806L55.2429 11.8457L56.3229 20.8217L53.8149 21.1234L52.7349 12.1714L49.7623 12.5314L49.512 10.3937L58.0063 9.37885V9.37713ZM42.372 12.5246C43.9269 11.9726 45.0977 11.8217 46.0577 12.1526C46.8977 12.4594 47.5406 13.1486 47.796 14.004C47.9896 14.5758 48.0028 15.1932 47.8338 15.7727C47.6649 16.3522 47.3219 16.8658 46.8514 17.244V17.292C47.688 17.3297 48.3394 17.8868 48.9429 18.7611C49.6903 19.8291 50.5029 21.0857 50.8337 21.4166L48.4063 22.2771C47.8026 21.6027 47.2674 20.87 46.8086 20.0897C46.068 18.8794 45.4869 18.672 44.5183 19.0063L43.7983 19.2583L45.2554 23.3863L42.8931 24.2177L39.2829 13.8583C40.2775 13.3366 41.3102 12.8908 42.372 12.5246ZM35.8389 15.36L36.9309 17.112L33.2366 19.4091L34.4537 21.3737L37.9371 19.2291L39.0171 20.9674L35.5371 23.1497L36.9531 25.3954L40.8189 22.9611L41.9091 24.7183L35.8714 28.4657L30 19.0166L35.8389 15.36ZM25.1949 22.7486C25.8473 22.074 26.6347 21.5448 27.5057 21.1954L28.5309 22.9851C27.8589 23.2543 27.2451 23.6554 26.7257 24.1611C25.308 25.5788 25.02 27.5023 26.7257 29.2783C28.2806 30.8794 30.2074 30.9651 31.8171 29.4017C32.3331 28.8994 32.7531 28.3183 33.0703 27.6771L34.7331 28.8206C34.3271 29.717 33.742 30.5209 33.0137 31.1828C30.2537 33.8657 27.1646 33.5434 24.9531 31.2514C22.308 28.5034 22.776 25.0971 25.1949 22.7486ZM26.9949 95.2868C27.4954 95.8011 28.0766 96.228 28.7143 96.5486L27.5623 98.184C26.6746 97.7768 25.8813 97.1895 25.2326 96.4594C22.5634 93.6908 22.908 90.5966 25.1949 88.3937C27.9309 85.7589 31.3371 86.2406 33.6977 88.668C34.3749 89.3194 34.8977 90.108 35.244 90.9823L33.4491 92.004C33.1828 91.3285 32.7841 90.713 32.2766 90.1937C30.8931 88.7777 28.968 88.4743 27.1594 90.1937C25.512 91.7434 25.4366 93.672 26.9949 95.2868ZM33.8777 103.221C31.0663 101.486 30.7269 98.3486 32.3897 95.6606C34.1383 92.8251 37.26 91.8103 40.0629 93.5349C42.972 95.3246 43.2223 98.4857 41.6126 101.095C39.684 104.198 36.6514 104.925 33.8777 103.221ZM54.372 110.506L51.9686 109.929L52.8034 105.746C53.0691 104.434 53.3949 102.847 53.7497 101.273H53.7017C53.0137 102.603 52.2761 103.907 51.4903 105.182L49.1623 109.087L47.2714 108.615L47.1206 104.146C47.0687 102.658 47.0802 101.168 47.1549 99.6806H47.1206C46.7057 101.127 46.2566 102.785 45.8554 104.117L44.6829 108.19L42.42 107.647L45.7286 96.9788L48.9857 97.7623L49.1811 101.633C49.2189 102.97 49.2326 104.397 49.1811 105.723H49.2274C49.8377 104.542 50.5509 103.202 51.1937 102.081L53.2114 98.7737L56.4086 99.54L54.372 110.506ZM65.532 105.11C64.7143 105.96 63.4629 106.39 61.9783 106.464C61.6923 106.483 61.4054 106.483 61.1194 106.464L61.3183 110.443L58.8274 110.566L58.2754 99.5948C59.3897 99.3703 60.5246 99.2331 61.6629 99.1954C63.2126 99.1148 64.332 99.36 65.1069 99.912C65.9057 100.509 66.3926 101.429 66.4251 102.427C66.5109 103.404 66.1851 104.378 65.532 105.11ZM75.84 107.906L74.2286 105.393L71.1634 106.267V109.233L68.6537 109.953L68.8714 98.3057L72.0514 97.404L78.4251 107.165L75.84 107.906ZM87.5863 102.105L83.3057 99.6874C82.0314 98.9718 80.7949 98.1907 79.6011 97.3474L79.5669 97.3851C80.3949 98.604 81.2451 99.9223 82.1949 101.472L83.952 104.33L81.9806 105.54L76.1469 96.0531L78.6566 94.512L82.7623 96.78C83.9949 97.4657 85.1794 98.2354 86.3109 99.0806L86.352 99.0531C85.4103 97.8228 84.5381 96.5408 83.7394 95.2131L82.0337 92.4394L84.0051 91.224L89.8337 100.716L87.5863 102.105ZM94.7949 96.1937L91.4863 93.0291L84.3069 91.0028L86.3006 88.9337L89.0211 89.9674C89.844 90.2794 90.4389 90.5246 91.152 90.828V90.804C90.8152 90.1181 90.5002 89.4218 90.2074 88.716L89.0554 86.052L91.02 84.0154L93.1937 91.1811L96.5366 94.404L94.7949 96.1937Z" fill="#1A233B"/>
<path d="M38.9571 95.1874C37.5069 94.296 35.8149 95.1531 34.7057 96.996C33.5949 98.8389 33.6274 100.701 35.0657 101.583C36.5006 102.468 38.1926 101.583 39.3171 99.7663C40.3509 98.0606 40.4366 96.0943 38.9571 95.1874ZM36.1491 59.3314C35.7772 59.5331 35.3524 59.6156 34.932 59.568H34.0389V61.9303H44.7531V59.568H43.8737C43.4485 59.6188 43.0179 59.5368 42.6411 59.3331C42.4611 59.1771 42.3669 58.7743 42.3669 58.1366V49.0149C42.3669 48.3806 42.4577 47.9846 42.636 47.8286C43.0131 47.6211 43.4451 47.5354 43.8737 47.5886H44.7531V45.2229H34.0389V47.5851H34.9303C35.3554 47.5337 35.7806 47.6194 36.1543 47.8251C36.3343 47.9829 36.4234 48.3789 36.4234 49.0131V58.1349C36.4234 58.7726 36.3343 59.1754 36.1491 59.3314ZM48.3857 54.0977C48.8537 54.3943 49.3594 54.6309 49.884 54.8006C50.5731 55.0509 51.5571 55.3594 52.836 55.7126C53.2303 55.8257 53.7823 55.9697 54.4611 56.1377C56.5869 56.6811 57.6497 57.3566 57.6497 58.1606C57.6522 58.4172 57.585 58.6696 57.4551 58.8909C57.3253 59.1123 57.1378 59.2941 56.9126 59.4171C56.3215 59.7628 55.642 59.9273 54.9583 59.8903C53.7027 59.918 52.4723 59.5365 51.4526 58.8034C50.4373 58.048 49.6891 56.9888 49.3166 55.7794H46.7229V62.0057H49.1897L49.8549 61.0611C51.7351 61.9604 53.7946 62.4223 55.8789 62.412C58.2137 62.412 60.0703 61.9114 61.4451 60.9103C62.1004 60.466 62.6334 59.864 62.9949 59.1597C63.3565 58.4554 63.5351 57.6714 63.5143 56.88C63.5415 56.19 63.4031 55.5036 63.1105 54.8781C62.8179 54.2527 62.3797 53.7064 61.8326 53.2851C60.7114 52.4057 58.7606 51.6686 55.9834 51.0789C55.7143 51.0223 55.332 50.9417 54.84 50.8474C52.8463 50.4634 51.8486 49.8977 51.8486 49.1554C51.8578 48.8955 51.9351 48.6426 52.0729 48.422C52.2108 48.2015 52.4041 48.0211 52.6337 47.8989C53.2286 47.5389 53.9194 47.3606 54.6171 47.388C55.7834 47.328 56.9395 47.6317 57.9257 48.2571C58.7897 48.9051 59.3897 49.8446 59.6057 50.904H62.6349V45.1303H60.0514L59.5783 45.9703C58.6731 45.5465 57.7215 45.2301 56.7429 45.0274C55.7121 44.8183 54.6626 44.715 53.6109 44.7189C51.4046 44.7189 49.6337 45.2331 48.2914 46.2651C47.6511 46.7282 47.1329 47.34 46.7815 48.0477C46.43 48.7554 46.2557 49.538 46.2737 50.328C46.2514 51.0651 46.4211 51.792 46.7709 52.4383C47.1771 53.1051 47.7309 53.6726 48.3857 54.0977ZM67.0851 60.0823C68.9331 61.656 71.4789 62.4446 74.7257 62.4446C77.9709 62.4446 80.5406 61.656 82.4263 60.0823C84.2777 58.5103 85.2034 56.3417 85.2086 53.5869C85.2137 50.832 84.288 48.6634 82.4314 47.0811C80.5834 45.5074 78.0326 44.7189 74.7771 44.7189C71.5217 44.7189 68.9606 45.5074 67.0903 47.0811C65.2389 48.6549 64.3131 50.8234 64.3131 53.5869C64.3131 56.3503 65.2389 58.512 67.0851 60.0823ZM72.1217 48.744C72.3759 48.268 72.761 47.8746 73.2316 47.6104C73.7021 47.3461 74.2384 47.222 74.7771 47.2526C75.3157 47.2216 75.8517 47.3479 76.3198 47.616C76.7879 47.8842 77.168 48.2826 77.4137 48.7629C77.9657 49.7691 78.2451 51.3806 78.24 53.6006C78.24 55.8069 77.9657 57.4097 77.4137 58.3971C77.1376 58.8523 76.7488 59.2287 76.2849 59.4899C75.821 59.7511 75.2976 59.8883 74.7651 59.8883C74.2327 59.8883 73.7093 59.7511 73.2454 59.4899C72.7815 59.2287 72.3927 58.8523 72.1166 58.3971C71.5646 57.3994 71.2903 55.7846 71.2903 53.5457C71.2903 51.3051 71.5697 49.7126 72.1303 48.7629L72.1217 48.744Z" fill="#1A233B"/>
</g>
<path d="M33 68.1678V68.191H34.277V68.1678C34.277 67.5504 34.7468 67.0955 35.3853 67.0955C35.9964 67.0955 36.4297 67.4947 36.4297 67.996C36.4297 68.4602 36.2244 68.7991 35.5586 69.4768L33.0775 71.9092V72.8515H37.8617V71.7374H34.8927V71.7095L36.4981 70.1359C37.2232 69.4025 37.7705 68.7759 37.7705 67.9403C37.7705 66.8216 36.8173 66.0046 35.4309 66.0046C33.9942 66.0046 33 66.9005 33 68.1678Z" fill="#30394F"/>
<path d="M39.0566 72.8515H40.5024L43.2479 67.2812V66.1532H38.5413V67.2672H41.8888V67.2951L39.0566 72.8515Z" fill="#30394F"/>
<path d="M46.5635 73C48.2191 73 49.2224 71.6492 49.2224 69.4861C49.2224 67.3229 48.21 66 46.5635 66C44.9171 66 43.9001 67.3276 43.9001 69.4907C43.9001 71.6585 44.908 73 46.5635 73ZM46.5635 71.8767C45.7791 71.8767 45.3002 71.0133 45.3002 69.4907C45.3002 67.9821 45.7882 67.1233 46.5635 67.1233C47.3434 67.1233 47.8223 67.9775 47.8223 69.4907C47.8223 71.0179 47.348 71.8767 46.5635 71.8767Z" fill="#30394F"/>
<path d="M52.6475 73C54.3031 73 55.3064 71.6492 55.3064 69.4861C55.3064 67.3229 54.294 66 52.6475 66C51.0011 66 49.9841 67.3276 49.9841 69.4907C49.9841 71.6585 50.992 73 52.6475 73ZM52.6475 71.8767C51.8631 71.8767 51.3842 71.0133 51.3842 69.4907C51.3842 67.9821 51.8722 67.1233 52.6475 67.1233C53.4274 67.1233 53.9063 67.9775 53.9063 69.4907C53.9063 71.0179 53.432 71.8767 52.6475 71.8767Z" fill="#30394F"/>
<path d="M57.7555 72.8515H59.1192V66.1532H57.751L56.0498 67.3554V68.618L57.7282 67.439H57.7555V72.8515Z" fill="#30394F"/>
<path d="M61.4315 71.9509C61.8374 71.9509 62.1657 71.6167 62.1657 71.2036C62.1657 70.7858 61.8374 70.4562 61.4315 70.4562C61.021 70.4562 60.6972 70.7858 60.6972 71.2036C60.6972 71.6167 61.021 71.9509 61.4315 71.9509ZM61.4315 68.632C61.8374 68.632 62.1657 68.2977 62.1657 67.8846C62.1657 67.4668 61.8374 67.1373 61.4315 67.1373C61.021 67.1373 60.6972 67.4668 60.6972 67.8846C60.6972 68.2977 61.021 68.632 61.4315 68.632Z" fill="#30394F"/>
<path d="M63.1189 68.1678V68.191H64.3959V68.1678C64.3959 67.5504 64.8657 67.0955 65.5042 67.0955C66.1153 67.0955 66.5486 67.4947 66.5486 67.996C66.5486 68.4602 66.3433 68.7991 65.6775 69.4768L63.1965 71.9092V72.8515H67.9806V71.7374H65.0116V71.7095L66.617 70.1359C67.3421 69.4025 67.8894 68.7759 67.8894 67.9403C67.8894 66.8216 66.9362 66.0046 65.5498 66.0046C64.1132 66.0046 63.1189 66.9005 63.1189 68.1678Z" fill="#30394F"/>
<path d="M71.3829 73C73.0385 73 74.0418 71.6492 74.0418 69.4861C74.0418 67.3229 73.0293 66 71.3829 66C69.7365 66 68.7195 67.3276 68.7195 69.4907C68.7195 71.6585 69.7274 73 71.3829 73ZM71.3829 71.8767C70.5985 71.8767 70.1196 71.0133 70.1196 69.4907C70.1196 67.9821 70.6076 67.1233 71.3829 67.1233C72.1628 67.1233 72.6417 67.9775 72.6417 69.4907C72.6417 71.0179 72.1674 71.8767 71.3829 71.8767Z" fill="#30394F"/>
<path d="M77.4669 73C79.1225 73 80.1258 71.6492 80.1258 69.4861C80.1258 67.3229 79.1133 66 77.4669 66C75.8205 66 74.8035 67.3276 74.8035 69.4907C74.8035 71.6585 75.8114 73 77.4669 73ZM77.4669 71.8767C76.6825 71.8767 76.2036 71.0133 76.2036 69.4907C76.2036 67.9821 76.6916 67.1233 77.4669 67.1233C78.2468 67.1233 78.7257 67.9775 78.7257 69.4907C78.7257 71.0179 78.2514 71.8767 77.4669 71.8767Z" fill="#30394F"/>
<path d="M83.4597 73C84.9693 73 86 72.0345 86 70.6141C86 69.3097 85.097 68.3674 83.8382 68.3674C83.1678 68.3674 82.6433 68.6505 82.3742 69.1008H82.3469L82.4974 67.2672H85.6032V66.1532H81.4165L81.0927 70.006H82.3241C82.5521 69.6207 82.9808 69.3886 83.4779 69.3886C84.1894 69.3886 84.6865 69.9085 84.6865 70.6512C84.6865 71.38 84.1894 71.8906 83.4688 71.8906C82.8303 71.8906 82.3377 71.5007 82.2602 70.9344H80.9878C81.0288 72.1459 82.0459 73 83.4597 73Z" fill="#30394F"/>
</g>
<defs>
<clipPath id="clip0_0_784">
<rect width="120" height="120" fill="white"/>
</clipPath>
</defs>
</svg>
