<svg width="120" height="120" viewBox="0 0 120 120" fill="none" xmlns="http://www.w3.org/2000/svg">
<g clip-path="url(#clip0_0_116)">
<g opacity="0.9">
<path d="M59.9983 93.9102C78.7251 93.9102 93.9103 78.7268 93.9103 59.9982C93.9103 41.2713 78.7251 26.0862 59.9983 26.0862C41.2697 26.0862 26.0863 41.2713 26.0863 59.9982C26.0863 78.7268 41.2697 93.9102 59.9983 93.9102ZM59.9983 27.3582C78.0257 27.3582 92.6383 41.9708 92.6383 59.9982C92.6383 78.0273 78.0257 92.6399 59.9983 92.6399C41.9691 92.6399 27.3583 78.0273 27.3583 59.9999C27.3583 41.9708 41.9691 27.3582 59.9983 27.3582Z" fill="#1A233B"/>
<path d="M60 0C26.8629 0 0 26.8629 0 60C0 93.1371 26.8629 120 60 120C93.1371 120 120 93.1371 120 60C120 26.8629 93.1371 0 60 0ZM60 117.751C28.1057 117.751 2.24914 91.8943 2.24914 60C2.24914 28.1057 28.1057 2.24914 60 2.24914C91.8943 2.24914 117.751 28.1057 117.751 60C117.751 91.8943 91.8943 117.751 60 117.751Z" fill="#1A233B"/>
<path d="M61.8891 101.073C61.5393 101.083 61.1919 101.133 60.8537 101.223L61.0183 104.53C61.2977 104.565 61.5857 104.565 61.8651 104.53C63.2023 104.463 63.9909 103.745 63.9343 102.607C63.8829 101.573 63.1406 101.011 61.8891 101.073ZM70.92 99.6858H70.8891C70.9114 100.366 70.9834 101.222 70.9869 101.892V104.343L73.3491 103.668L72.0326 101.585C71.6777 101.019 71.2594 100.282 70.92 99.6858ZM87.5777 29.004C89.2491 30.5538 91.1914 30.6292 92.9863 28.6629C94.56 26.9675 94.404 25.1538 92.784 23.6932C92.5067 23.4302 92.2021 23.1974 91.8754 22.9989L86.9623 28.38C87.148 28.6064 87.354 28.8152 87.5777 29.004ZM44.1686 17.2132C45.3497 16.7932 45.84 15.9566 45.5194 15.036C45.1989 14.1138 44.3537 13.8172 43.2566 14.1703C42.8936 14.2969 42.5426 14.4552 42.2074 14.6435L43.2326 17.544L44.1686 17.2132Z" fill="#1A233B"/>
<path d="M60 4.3457C29.2629 4.3457 4.34572 29.2628 4.34572 60C4.34572 90.7371 29.2629 115.651 60 115.651C90.7371 115.651 115.653 90.7337 115.653 59.9966C115.653 29.2628 90.7371 4.3457 60 4.3457ZM96.5177 60C96.5177 80.1686 80.1669 96.5211 59.9983 96.5211C39.8297 96.5211 23.4806 80.1686 23.4806 60C23.4806 39.8314 39.8314 23.4771 60 23.4771C80.1686 23.4771 96.5194 39.8314 96.5194 60H96.5177Z" fill="#1A233B"/>
</g>
<path d="M64.2937 58.809C64.2834 58.7987 64.0345 58.5394 63.6042 58.5394C63.3761 58.5394 63.1428 58.612 62.9095 58.7468C62.868 58.7676 62.8421 58.8142 62.8525 58.8609C62.8525 58.8712 63.0235 60.0326 62.8939 60.5303C62.7954 60.9036 62.4792 61.3442 61.9037 61.3442C61.7793 61.3442 61.6548 61.3235 61.52 61.2872H61.5149L61.9504 60.9917C61.9815 60.971 62.0022 60.9347 62.0022 60.8932C62.0022 60.8517 61.9815 60.8206 61.9504 60.7947L61.0845 60.1985C61.3593 59.9911 61.5304 59.8459 61.5511 59.8252C61.5771 59.8045 61.5926 59.7733 61.5926 59.7422C61.5926 59.7111 61.5823 59.68 61.5563 59.6541L61.4008 59.4986C61.3801 59.4778 61.3489 59.4623 61.3178 59.4623C61.2919 59.4623 61.266 59.4726 61.2453 59.4882C61.2349 59.4934 61.0068 59.6697 60.6594 59.9081L60.3121 59.6697L61.6704 58.7364L61.7741 59.006C61.7896 59.0475 61.8311 59.0786 61.8778 59.0786C61.8778 59.0786 61.8778 59.0786 61.883 59.0786C61.9244 59.0786 61.9659 59.0527 61.9866 59.0164L62.6347 57.824C62.6554 57.7825 62.6503 57.7358 62.6295 57.6996C62.6088 57.6684 62.5725 57.6477 62.531 57.6477C62.5258 57.6477 62.5206 57.6477 62.5155 57.6477L61.1779 57.8499C61.1312 57.8551 61.0949 57.8862 61.0794 57.9329C61.069 57.9743 61.0794 58.021 61.1156 58.0521L61.3334 58.2439L59.7884 59.3067L58.2486 58.2439L58.4664 58.0521C58.4975 58.021 58.513 57.9743 58.4975 57.9329C58.4871 57.8862 58.4508 57.8551 58.4042 57.8499L57.0666 57.6477C57.0614 57.6477 57.0562 57.6477 57.051 57.6477C57.0095 57.6477 56.9732 57.6633 56.9525 57.6996C56.9266 57.7358 56.9266 57.7825 56.9473 57.824L57.5902 59.0164C57.6109 59.0527 57.6524 59.0786 57.6939 59.0786C57.6991 59.0786 57.6991 59.0786 57.6991 59.0786C57.7457 59.0786 57.782 59.0475 57.8028 59.006L57.9116 58.7364L59.27 59.6697L58.9226 59.9081C58.5752 59.6697 58.3471 59.4934 58.3419 59.4882C58.3212 59.4726 58.2953 59.4623 58.2694 59.4623C58.2383 59.4623 58.2071 59.4726 58.1864 59.4986L58.0309 59.6541C58.0101 59.6748 57.9946 59.7059 57.9946 59.7422C57.9946 59.7733 58.0101 59.8045 58.0361 59.8252C58.062 59.8459 58.2331 59.9911 58.5078 60.1985L57.642 60.7947C57.6109 60.8154 57.5902 60.8517 57.5902 60.8932C57.5902 60.9347 57.6109 60.9658 57.642 60.9917L58.0775 61.2872C58.0775 61.2872 58.0775 61.2872 58.0723 61.2872C57.9376 61.3235 57.8131 61.3442 57.6887 61.3442C57.1132 61.3442 56.7918 60.9036 56.6933 60.5303C56.5637 60.0326 56.7347 58.8712 56.7347 58.8609C56.7399 58.8142 56.7192 58.7676 56.6777 58.7468C56.4392 58.612 56.2059 58.5394 55.983 58.5394C55.5475 58.5394 55.2986 58.7935 55.2883 58.809C55.2675 58.8246 55.2572 58.8557 55.2572 58.8764C55.252 58.949 55.1172 60.6236 55.8949 61.4739C56.18 61.7849 56.5585 61.9457 57.0095 61.9457C57.0873 61.9457 57.1754 61.9457 57.2584 61.9301C57.6991 61.8783 58.1294 61.759 58.5493 61.6138L59.27 62.1012L57.6783 63.1796C57.6472 63.2055 57.6265 63.2366 57.6265 63.2781C57.6265 63.3144 57.642 63.3506 57.6783 63.3766L59.2752 64.4809L57.9116 65.4244L57.8079 65.16C57.7924 65.1186 57.7509 65.0926 57.7042 65.0875C57.7042 65.0875 57.7043 65.0875 57.6991 65.0875C57.6576 65.0875 57.6161 65.1134 57.5954 65.1497L56.9525 66.3421C56.9318 66.3784 56.9369 66.4302 56.9577 66.4613C56.9784 66.4925 57.0147 66.5132 57.0562 66.5132C57.0614 66.5132 57.0666 66.5132 57.0717 66.5132L58.4093 66.3162C58.456 66.311 58.4923 66.2747 58.5027 66.2332C58.5182 66.1866 58.5027 66.1399 58.4716 66.1088L58.2486 65.9118L59.7936 64.8438L61.3386 65.9118L61.1156 66.1088C61.0794 66.1399 61.069 66.1866 61.0794 66.2332C61.0897 66.2747 61.1312 66.3058 61.1779 66.3162L62.5155 66.5132C62.5206 66.5132 62.5258 66.5132 62.531 66.5132C62.5673 66.5132 62.6036 66.4976 62.6295 66.4613C62.6554 66.4251 62.6554 66.3784 62.6347 66.3421L61.9866 65.1497C61.9659 65.1134 61.9296 65.0875 61.883 65.0875H61.8778C61.8259 65.0875 61.7896 65.1186 61.7741 65.16L61.6704 65.4244L60.3069 64.4809L61.9037 63.3766C61.9348 63.3558 61.9555 63.3195 61.9555 63.2781C61.9555 63.2366 61.9348 63.2055 61.9037 63.1796L60.3121 62.1012L61.0327 61.6138C61.4475 61.7642 61.8778 61.8783 62.3184 61.9301C62.4066 61.9405 62.4895 61.9457 62.5673 61.9457C63.0235 61.9457 63.3968 61.7849 63.682 61.4739C64.4596 60.6236 64.3248 58.949 64.3197 58.8764C64.3197 58.8557 64.3093 58.8298 64.2937 58.809ZM59.7832 60.0429L60.1254 60.2762C60.0165 60.3436 59.9025 60.4162 59.7832 60.4888C59.664 60.4162 59.5499 60.3488 59.4411 60.2762L59.7832 60.0429ZM58.539 60.8984L59.0107 60.5718C59.1041 60.6288 59.1974 60.691 59.3011 60.7584C59.1144 60.8569 58.9278 60.9502 58.7411 61.0384L58.539 60.8984ZM61.0016 63.2781L59.7832 64.118L58.5701 63.2781L59.7832 62.4537L61.0016 63.2781ZM59.7832 61.7435L59.1974 61.3442C59.4048 61.2457 59.5966 61.1472 59.7832 61.0435C59.9699 61.1472 60.1669 61.2457 60.3743 61.3442L59.7832 61.7435ZM60.8305 61.0384C60.6439 60.9554 60.452 60.8621 60.2654 60.7584C60.3691 60.691 60.4624 60.634 60.5557 60.5718L61.0327 60.8984L60.8305 61.0384Z" fill="#6D6E71"/>
<path d="M64.7033 59.794C64.75 59.7007 64.7707 59.5244 64.7707 59.5244L64.7033 59.5037V59.794Z" fill="#6D6E71"/>
<path d="M80.0235 55.6412C79.5258 55.3405 78.7015 55.2368 77.8616 55.3146C79.1732 54.8583 80.0702 53.8837 80.1168 53.0127C79.4325 52.8156 78.7222 52.9193 78.1052 53.0593C78.7429 52.5823 79.7902 51.7113 79.6606 50.4308C79.0436 50.2804 77.9134 50.7107 77.4416 50.9233C78.9555 50.073 79.4999 48.0615 78.6963 46.9209C78.2193 47.2008 76.0574 49.4094 75.7048 49.6635C76.8247 48.3829 77.3483 47.4652 77.649 46.6046C78.0067 45.6662 78.0326 44.0279 76.8713 43.4784C76.3218 44.733 74.4035 47.9526 73.3355 49.2902C73.2163 49.1865 73.1229 49.0465 72.9726 49.0206C72.7185 49.8346 71.9616 50.9181 71.2721 51.4366C71.2358 51.3692 71.1684 51.1825 71.0491 50.9803C70.3181 52.0743 68.4206 53.5726 67.8088 54.4954C67.3319 55.1798 67.3319 55.7967 67.9955 56.4344C68.2651 56.704 68.7731 57.1758 68.3325 57.8394C67.7311 58.7156 66.5231 58.8193 65.8698 58.3008C65.8698 58.1453 65.8646 57.995 65.8595 57.855C66.6319 57.5543 66.8134 56.5018 66.2431 55.8486C66.1187 56.0871 65.9113 56.2633 65.6624 56.3515C65.5951 56.0767 65.538 55.9471 65.5328 55.9315L65.5017 55.8693H65.4343C65.4291 55.8693 65.1751 55.8538 64.7966 55.8123C65.2269 55.6723 65.5017 55.2731 65.4395 54.7391C64.7759 55.3094 64.1123 54.765 63.9619 54.6147C63.5472 54.1273 63.4279 53.5778 63.5938 52.7379C63.7338 52.0069 64.4908 50.8455 64.9885 50.4723C65.061 50.5397 65.1751 50.6796 65.4188 50.6589C65.5588 50.6122 65.7921 50.493 65.9683 50.4256C66.4712 50.2752 66.9586 50.3893 67.2696 50.5915C67.8399 50.9389 67.7881 51.3225 67.7725 51.6025C68.6383 51.1151 68.3376 50.3012 67.2022 50.0005C67.9799 50.0005 68.6176 50.7107 68.7835 50.7989C69.2138 51.1151 69.8308 51.0426 70.1885 50.8715C70.878 50.5448 71.018 49.7309 70.8314 49.565C70.764 49.8553 70.5411 50.1145 70.1419 50.1612C69.5508 50.2286 68.9805 49.9745 68.5295 49.7723C68.1458 49.6116 67.5289 49.4924 67.1089 49.5183C67.8866 49.088 69.0946 49.1347 69.5249 49.7983C69.7841 49.5909 69.9448 49.4042 70.0174 48.9739C70.2404 47.8126 69.3331 47.2164 68.3636 47.2164C68.3895 46.9364 68.1925 46.7964 67.9333 46.8898C67.9333 46.7705 67.9021 46.6772 67.8348 46.6305C67.8555 46.6305 67.8866 46.6202 67.9073 46.6202C68.882 46.5528 69.8049 46.2521 70.3026 45.7284C71.1736 44.7952 69.7841 43.6132 70.2818 42.6955C70.7588 42.9029 71.1114 43.1725 71.7698 43.2658C71.8372 43.4058 71.8994 43.6858 71.9201 43.8361C72.1327 44.873 71.1114 45.0441 71.3758 46.1484C71.4898 46.6513 71.8683 46.8224 71.9927 47.4186C71.9927 47.4186 72.0394 47.8333 71.6765 48.1963C72.5163 48.217 72.957 47.5067 72.6978 46.8483C72.5837 46.5787 72.2934 46.3247 72.2934 46.0084C72.7237 46.5787 73.1074 46.558 73.771 46.3454C74.0717 46.2521 74.0976 46.672 73.911 47.009C74.3672 46.7394 74.4813 46.2987 74.4813 46.1017C74.4813 45.6351 74.1184 45.4174 73.771 45.5107C73.574 45.5314 73.18 45.801 73.154 45.4174C73.0711 44.7538 74.1184 44.7797 73.9058 43.7117C73.7917 43.1777 73.1955 42.8822 72.2675 42.7681C72.1742 42.6748 71.9409 42.4518 71.8164 42.2652C71.3084 41.4201 70.7795 41.1972 70.4633 41.3683C70.09 41.5549 69.8982 41.7156 69.5923 41.8815C69.3486 42.0112 69.0894 42.0786 68.9287 42.2652C68.5243 42.7681 68.9079 43.5458 69.1153 44.0227C69.2553 44.3027 69.5923 44.9404 69.4419 45.4174C69.276 45.9877 68.3376 46.3454 67.7674 46.4646C67.7311 46.4646 67.7051 46.475 67.6688 46.475V46.2521C67.8348 45.9617 67.9747 45.6144 68.0888 45.2981C68.4724 44.2716 67.9021 43.8568 67.0571 43.6598C66.9482 43.5924 66.8341 43.5665 66.6942 43.6132H66.6682L66.6475 43.7843L66.5334 43.748L66.5594 43.5406H66.5075C66.606 43.4732 66.6475 43.3539 66.6475 43.2399C66.6475 43.1155 66.6008 43.017 66.5542 42.9496H66.6682L66.6216 42.9029C66.6008 42.8562 66.5542 42.8096 66.4816 42.737C66.4609 42.7163 66.4349 42.6696 66.4349 42.6437C66.4557 42.6644 66.4816 42.6903 66.5283 42.7111C66.5749 42.7577 66.6423 42.8044 66.6682 42.851L66.7356 42.8977V41.9593L66.6682 42.0163C66.6475 42.0371 66.5749 42.0837 66.5283 42.1356C66.4816 42.1823 66.4609 42.1822 66.4349 42.203C66.4349 42.1822 66.4557 42.1563 66.4816 42.1097C66.5542 42.063 66.6008 41.9956 66.6216 41.9593L66.6682 41.8867H65.7143L65.761 41.9593C65.8076 41.9904 65.8646 42.063 65.9113 42.1097C65.932 42.1563 65.958 42.1822 65.9787 42.203C65.9528 42.1822 65.9113 42.1823 65.8854 42.1356C65.8024 42.0889 65.761 42.0423 65.7143 42.0163L65.678 41.9593V42.9133L65.7247 42.8666C65.7713 42.8199 65.818 42.7733 65.8958 42.7266C65.9217 42.7059 65.9632 42.68 65.9891 42.6592C65.9632 42.68 65.9424 42.7266 65.9217 42.7525C65.875 42.8251 65.8128 42.8666 65.7713 42.9184L65.7247 42.9651H65.875C65.7921 43.0325 65.7713 43.131 65.7713 43.2554C65.7713 43.3695 65.818 43.4887 65.8958 43.5561H65.875L65.8958 43.7635L65.7713 43.7998L65.7454 43.6287H65.7247C65.5847 43.5821 65.4706 43.608 65.3773 43.6754C64.5167 43.8724 63.9464 44.2923 64.33 45.3137C64.4493 45.6299 64.5893 45.9773 64.7603 46.2676V46.418C63.8997 46.138 62.3496 45.1944 61.9348 44.6241C61.8881 44.5671 61.8518 44.5205 61.8311 44.4842H61.8259L61.8415 43.8672C62.1422 43.3643 62.4118 42.7474 62.6192 42.1822C63.1635 40.7047 62.3599 40.0877 61.0845 39.8337C60.9549 39.7404 60.7942 39.6937 60.5816 39.7663L60.535 39.9996L60.2654 39.9788L60.2861 39.6781C60.2498 39.6885 60.2032 39.6885 60.1565 39.6885C60.338 39.5952 60.4676 39.3723 60.4676 39.1441C60.4676 38.9782 60.3846 38.7812 60.2447 38.6879H60.4676C60.338 38.5738 60.1306 38.3302 60.0891 38.1643C60.2498 38.2109 60.4935 38.4287 60.6076 38.5479V37.3399C60.4935 37.4333 60.2498 37.6666 60.0891 37.6873C60.1306 37.5525 60.338 37.3192 60.4676 37.2H59.2596C59.3529 37.3192 59.5862 37.5525 59.607 37.6873C59.467 37.6666 59.2337 37.4333 59.1041 37.3399V38.5479C59.2337 38.4287 59.4618 38.2109 59.607 38.1643C59.5862 38.325 59.3529 38.5687 59.2596 38.6879H59.467C59.327 38.7812 59.2596 38.9782 59.2596 39.1441C59.2596 39.3723 59.3737 39.6004 59.5603 39.6885C59.5136 39.6885 59.467 39.6885 59.3944 39.6678L59.4203 39.9685L59.1507 39.9892L59.1248 39.7559C58.9174 39.6885 58.7567 39.7352 58.6167 39.8233C57.3517 40.0825 56.5481 40.6943 57.0925 42.1719C57.2791 42.737 57.5487 43.3591 57.8702 43.8568V44.4945C57.8494 44.5153 57.8235 44.5619 57.7768 44.6086C57.3724 45.1789 55.8119 46.1225 54.9513 46.4024V46.2521C55.1224 45.9617 55.2675 45.6144 55.3816 45.2981C55.7652 44.2716 55.195 43.8568 54.3343 43.6598C54.2358 43.5924 54.1269 43.5665 53.987 43.6132H53.9662L53.9403 43.7843L53.8262 43.748L53.847 43.5406H53.8262C53.8936 43.4732 53.9403 43.3539 53.9403 43.2399C53.9403 43.1155 53.9196 43.017 53.847 42.9496H53.987L53.9403 42.9029C53.8936 42.8562 53.847 42.8096 53.8003 42.737C53.7796 42.7163 53.7433 42.6696 53.7174 42.6437C53.7433 42.6644 53.8003 42.6903 53.8211 42.7111C53.8885 42.7577 53.9351 42.8044 53.987 42.851L54.0336 42.8977V41.9593L53.987 42.0163C53.9403 42.0371 53.8936 42.0837 53.8211 42.1356C53.8003 42.1823 53.7433 42.1822 53.7174 42.203C53.7433 42.1822 53.7744 42.1563 53.8003 42.1097C53.847 42.063 53.8936 41.9956 53.9403 41.9593L53.987 41.8867H53.033L53.0797 41.9593C53.1004 41.9904 53.1626 42.063 53.2093 42.1097C53.256 42.1563 53.2767 42.1822 53.2767 42.203C53.2611 42.1771 53.2352 42.1771 53.1937 42.1304C53.1367 42.0837 53.0641 42.0371 53.0434 42.0112L52.9708 41.9541V42.9081L53.0434 42.8614C53.0641 42.8148 53.1367 42.7681 53.1937 42.7214C53.2404 42.7007 53.2611 42.6748 53.2819 42.654C53.2819 42.6748 53.2611 42.7214 53.2145 42.7474C53.1678 42.8199 53.1056 42.8614 53.0849 42.9133L53.0382 42.9599H53.1626C53.1056 43.0273 53.0538 43.1258 53.0538 43.2503C53.0538 43.3643 53.1004 43.4836 53.2093 43.551H53.1626L53.1886 43.7583L53.0589 43.7946L53.0382 43.6235H53.0123C52.8723 43.5769 52.7582 43.6028 52.6649 43.6702C51.8043 43.8672 51.234 44.2872 51.6177 45.3085C51.7369 45.6248 51.8769 45.9721 52.048 46.2624V46.4854C52.0117 46.4854 51.9806 46.475 51.9546 46.475C51.3844 46.3558 50.4304 45.998 50.2697 45.4277C50.1193 44.9508 50.4563 44.3131 50.5963 44.0331C50.8192 43.5561 51.1925 42.7785 50.7985 42.2756C50.6222 42.0889 50.3682 42.0215 50.1193 41.8919C49.8186 41.7312 49.632 41.5653 49.2483 41.3787C48.9425 41.2076 48.424 41.4253 47.8952 42.2756C47.7811 42.4622 47.5375 42.68 47.439 42.7785C46.5213 42.8925 45.9303 43.1829 45.8007 43.722C45.5881 44.7901 46.6354 44.7693 46.568 45.4277C46.542 45.8114 46.1376 45.5418 45.951 45.5211C45.5881 45.4277 45.2304 45.6455 45.2304 46.1121C45.2304 46.3091 45.36 46.7498 45.8007 47.0194C45.614 46.6824 45.6347 46.2624 45.951 46.3558C46.6146 46.5683 46.9827 46.5891 47.4182 46.0188C47.4182 46.3298 47.1383 46.5891 47.0138 46.8587C46.7546 47.5223 47.1849 48.2274 48.0352 48.2066C47.6515 47.8437 47.7293 47.429 47.7293 47.429C47.8485 46.8327 48.2218 46.6617 48.3462 46.1588C48.6055 45.0545 47.5789 44.8834 47.8019 43.8465C47.8226 43.6961 47.8693 43.4162 47.9418 43.2762C48.6055 43.1829 48.9684 42.9184 49.4298 42.7059C49.9068 43.6235 48.5329 44.8056 49.4091 45.7388C49.912 46.2624 50.84 46.5631 51.8043 46.6305C51.825 46.6305 51.8561 46.6409 51.8821 46.6461C51.8147 46.6928 51.7784 46.7809 51.7784 46.9001C51.5243 46.8068 51.3273 46.9468 51.3636 47.2268C50.363 47.2268 49.4816 47.823 49.6994 48.9843C49.7668 49.4146 49.9327 49.6013 50.2023 49.8086C50.6222 49.145 51.8302 49.0984 52.6183 49.5287C52.1879 49.5028 51.571 49.622 51.1925 49.7827C50.7467 49.9797 50.1816 50.239 49.5905 50.1716C49.1809 50.1249 48.9736 49.8709 48.8906 49.5753C48.704 49.7412 48.844 50.55 49.5387 50.8818C49.886 51.0529 50.503 51.1255 50.9333 50.8092C51.0992 50.7159 51.7369 50.0108 52.5198 50.0108C51.3895 50.3115 51.0733 51.1255 51.9598 51.6128C51.9235 51.3329 51.8821 50.9492 52.4472 50.6019C52.7634 50.4049 53.2611 50.2856 53.7537 50.436C53.9248 50.5034 54.1581 50.6226 54.298 50.6693C54.5417 50.69 54.6558 50.55 54.7284 50.4826C55.2312 50.8559 55.9623 52.0172 56.123 52.7482C56.2993 53.5881 56.1696 54.1325 55.7497 54.625C55.6097 54.7754 54.9357 55.3198 54.2773 54.7495C54.2151 55.2835 54.4899 55.6775 54.9202 55.8227C54.5365 55.8641 54.2773 55.8797 54.2721 55.8797H54.2047L54.1788 55.9419C54.1736 55.9523 54.1166 56.0871 54.044 56.3567C53.8055 56.2633 53.5981 56.0922 53.4737 55.8538C52.9034 56.507 53.0797 57.5543 53.847 57.855C53.8418 58.0001 53.8366 58.1505 53.8366 58.3112C53.1782 58.8193 51.9858 58.7104 51.3947 57.8394C50.9385 57.1758 51.4621 56.6988 51.7213 56.4344C52.385 55.7967 52.385 55.1798 51.9028 54.4954C51.2858 53.5778 49.3935 52.0743 48.6625 50.9803C48.5433 51.1773 48.4759 51.364 48.4499 51.4366C47.7656 50.9181 46.9983 49.8346 46.7442 49.0206C46.6042 49.0413 46.5006 49.1865 46.3813 49.2902C45.3237 47.9526 43.395 44.733 42.8507 43.4784C41.6997 44.0279 41.7205 45.6662 42.073 46.6046C42.3841 47.4652 42.9077 48.3829 44.012 49.6635C43.6646 49.4043 41.5027 47.2008 41.0257 46.9209C40.2273 48.0615 40.7717 50.073 42.2804 50.9233C41.819 50.7107 40.6784 50.2804 40.0614 50.4308C39.9474 51.7113 40.9791 52.5823 41.6168 53.0593C40.9946 52.9193 40.2844 52.8156 39.6 53.0127C39.6467 53.8837 40.5539 54.8635 41.8293 55.3146C41.0154 55.2316 40.191 55.3405 39.6881 55.6412C39.7815 56.5485 40.808 57.3313 42.0367 57.518C41.2124 57.6113 40.4814 57.9742 40.0977 58.4719C40.5488 59.063 41.2124 59.5192 42.2234 59.4985C41.9901 59.5814 41.7205 59.7421 41.4923 59.9599C41.4664 59.9391 41.4198 59.9132 41.3783 59.9132C41.3264 59.934 41.3109 60.0065 41.3264 60.0532C41.3264 60.0532 41.3264 60.0532 41.3264 60.0895C41.2279 60.1569 41.1761 60.2398 41.1657 60.3228C41.0724 60.4576 40.9739 60.6131 40.922 60.7531C40.948 60.7635 40.9687 60.7894 40.9894 60.7998C40.9843 60.8723 41.005 60.9605 41.062 61.0486C41.0154 61.0953 40.9946 61.1627 40.9687 61.2353L40.3777 60.9968C40.3466 61.536 40.4658 61.9766 40.7354 62.2514C40.948 62.4951 41.1916 62.4588 41.1191 62.5418L41.7619 62.9358C41.876 63.1794 42.1093 63.1794 42.27 63.1121C42.27 63.1121 42.27 63.1328 42.27 63.1587C42.27 63.4128 42.4463 63.6201 42.6744 63.7031C42.6277 63.9156 42.7211 64.0504 43.0114 64.1489L45.4274 70.0074C45.334 70.2874 45.4274 70.5311 45.6399 70.6244C45.5881 70.6918 45.5466 70.7644 45.5466 70.9043C45.6399 70.8369 45.7799 70.811 45.8473 71.008C45.894 71.148 45.6399 71.5991 46.0236 71.905C45.9717 72.1745 46.1169 72.4493 46.3917 72.5686C46.3917 72.7085 46.5213 73.1596 46.542 73.3203C46.3709 73.564 45.9717 73.9373 46.0236 74.3468C46.0702 74.6372 46.1843 74.7305 46.4176 74.8031C46.3243 75.3267 46.6146 75.56 47.0553 75.5859C47.0553 75.9696 47.413 76.1044 47.6463 76.1303C47.8693 76.2962 47.9626 76.3636 48.2166 76.4932C47.9833 76.768 48.1492 77.1309 48.5744 77.2502C48.621 77.4109 48.7403 77.5509 48.9787 77.6079C49.1187 77.8412 49.3728 77.8412 49.5231 77.7738C49.6164 77.7271 49.7823 77.4575 49.6372 77.2242C49.7305 77.1102 49.6838 76.8872 49.6164 76.7473C49.7564 76.4932 49.6372 76.177 49.4454 76.0837C49.4713 75.9437 49.3987 75.7207 49.352 75.5859C49.689 75.3734 50.109 75.109 50.2593 75.0156C51.0837 74.4246 52.0169 73.8958 53.0745 73.8284C53.3441 73.8025 53.8418 73.7817 54.1218 73.8025C54.5521 73.8491 55.1431 73.9787 55.4905 73.7092C55.5993 73.6418 55.6667 73.5225 55.646 73.4085C55.5993 73.1389 55.309 72.9056 55.2157 72.6671C55.1898 72.5945 55.1483 72.4856 55.1016 72.3871C55.4023 72.439 55.6823 72.3975 55.8534 72.3145C56.04 72.2471 56.4911 71.9101 56.4703 71.4072C56.1074 71.5783 55.2364 71.8116 55.1431 70.9303C55.0498 70.1526 55.7341 69.489 56.8073 69.7793C57.5383 69.966 58.6064 71.5213 57.6317 72.2005C57.1547 72.5271 56.4237 72.8382 56.517 73.6884C56.8281 73.3048 57.248 73.1181 57.7924 73.1648C56.994 73.7558 56.377 73.8284 55.5371 74.2794C54.8061 74.7098 54.2617 75.42 53.6863 75.4408C53.2456 75.4615 53.0019 74.9379 53.4322 74.5335C53.0019 74.4402 52.4316 74.7772 52.2709 75.2282C52.0635 75.8452 52.2242 76.2859 52.6079 76.5347C52.0894 76.8147 51.7006 77.359 51.8872 78.1367C52.0635 78.7744 52.7012 78.7744 52.4575 79.5884C52.8153 79.4951 53.0486 79.2514 53.1523 78.904C53.1989 78.6603 53.2456 78.4063 53.3648 78.2871C53.313 78.7744 53.5929 79.495 54.2617 79.8217C54.7128 80.0446 55.4231 80.1327 55.9674 79.5676C56.1904 80.2053 56.9421 80.7549 57.725 80.729C58.0827 80.729 58.4353 80.5734 58.6997 80.4179C58.8863 80.8897 59.3633 81.3718 59.8351 81.6C60.3224 81.3718 60.7994 80.8897 60.9964 80.4179C61.2556 80.5786 61.6134 80.729 61.9607 80.729C62.7125 80.7497 63.5057 80.2053 63.7183 79.5676C64.2626 80.1327 64.9729 80.0446 65.424 79.8217C66.0876 79.495 66.3675 78.7744 66.3209 78.2871C66.4453 78.4063 66.492 78.6603 66.5438 78.904C66.6371 79.2514 66.8653 79.4951 67.2282 79.5884C66.9845 78.7744 67.6377 78.7744 67.7985 78.1367C67.9851 77.359 67.6014 76.8095 67.0882 76.5347C67.4615 76.291 67.6377 75.8503 67.4148 75.2282C67.2541 74.7772 66.6838 74.4402 66.2535 74.5335C66.6838 74.9379 66.4505 75.4615 65.9994 75.4408C65.4291 75.42 64.8848 74.7046 64.1486 74.2794C63.3139 73.8232 62.6969 73.7558 61.8933 73.1648C62.4377 73.1181 62.868 73.3048 63.1687 73.6884C63.262 72.8382 62.531 72.5271 62.054 72.2005C61.0897 71.5213 62.1474 69.966 62.8939 69.7793C63.9516 69.489 64.6515 70.1526 64.5426 70.9303C64.4285 71.8168 63.5783 71.5835 63.1946 71.4072C63.1946 71.905 63.6457 72.2419 63.8323 72.3145C64.0501 72.4182 64.4545 72.4752 64.8122 72.3197C64.8018 72.4078 64.7863 72.5012 64.7863 72.5271C64.7137 73.284 64.3093 73.3514 64.4493 73.6625C64.6463 73.8958 65.9476 73.8491 66.3001 73.9217C66.9171 74.0047 67.4407 74.2328 68.0318 74.352C68.6954 74.492 69.4005 74.492 69.9967 74.7357C70.3803 74.9016 70.8106 75.2127 71.1839 75.3993C71.7542 75.4926 71.6609 75.7259 72.0238 75.7259C72.3504 75.7259 72.4749 75.446 72.8948 75.3319C73.1852 75.2645 73.5118 75.3786 73.8021 75.2852C74.0147 75.2386 74.108 75.0208 74.305 74.9016C74.5383 74.7616 74.8649 74.7616 75.0827 74.5594C75.1967 74.4557 75.2227 74.2587 75.2019 74.1187L75.2071 74.1498C75.653 73.8388 75.99 73.3825 76.1766 72.8589C76.2907 72.8382 76.384 72.7345 76.384 72.6152C76.384 72.5945 76.384 72.5686 76.384 72.5686C76.498 72.4752 76.5706 72.3353 76.5706 72.1953C76.5706 72.019 76.5032 71.879 76.384 71.765C76.384 71.765 76.384 71.739 76.384 71.7183C76.384 71.625 76.3373 71.5576 76.2907 71.4954C76.104 70.4844 75.3367 69.6704 74.3465 69.4164C74.3465 69.3905 74.3465 69.3905 74.3465 69.3697H74.3257C74.3257 69.3231 74.305 69.2971 74.2687 69.2971C74.1287 69.1572 73.9628 68.9394 73.9421 68.7994C74.1028 68.8461 74.3724 69.1001 74.5124 69.2038V67.8662C74.3724 67.9699 74.108 68.224 73.9421 68.2706C73.9628 68.1047 74.2169 67.8144 74.3465 67.7003H72.9881C73.1126 67.8144 73.3718 68.1047 73.3925 68.2706C73.2318 68.224 72.9622 67.9699 72.8274 67.8662V69.2038C72.9674 69.1001 73.2318 68.8461 73.3925 68.7994C73.3718 68.9653 73.1126 69.2557 72.9881 69.3697L73.0348 69.3905C72.0238 69.6238 71.2099 70.4637 71.0232 71.4954C70.9558 71.5524 70.9092 71.625 70.9092 71.7183C70.9092 71.739 70.9092 71.765 70.9092 71.765C70.7899 71.879 70.7225 72.019 70.7225 72.1953C70.7225 72.3301 70.7899 72.4752 70.9092 72.5686C70.9092 72.5686 70.9092 72.5893 70.9092 72.6152C70.9092 72.7656 71.0025 72.8382 71.1165 72.8589C71.1632 72.9885 71.2202 73.1181 71.2824 73.2322C71.2824 73.2218 71.2824 73.2218 71.298 73.2063C71.215 73.5899 70.7484 73.8232 70.6447 73.8232C69.8152 73.9425 68.8976 73.5899 68.0629 73.2788C67.6948 73.1389 67.1919 72.9781 66.9482 72.6152C66.7979 72.3508 66.7305 72.1849 66.8082 71.9516C66.9015 72.0657 67.0519 72.1953 67.2645 72.3093C67.2852 72.1953 67.2852 72.0657 67.3319 71.9724C67.5444 72.2886 67.8814 72.4493 68.2858 72.4286C68.0421 72.2212 67.9281 71.6716 68.0421 71.1947C68.3791 71.765 69.6597 71.879 69.893 70.8577C69.416 71.0806 69.1101 70.8369 69.022 70.5777C68.882 70.1681 69.3486 69.1779 68.9287 68.4158C68.5917 67.8455 68.208 67.4981 67.3163 67.3582C67.3837 67.2493 67.4096 67.156 67.4304 66.9952C66.606 67.2959 65.8958 67.0626 65.5588 66.4042C65.7247 66.4716 65.9631 66.4975 66.1965 66.4975C65.4654 65.9013 65.5121 64.2163 66.0357 63.3454C66.1031 63.2987 66.1291 63.252 66.1965 63.2313C66.3572 63.5579 66.8341 63.5579 67.0778 63.8223C67.1711 63.729 67.2178 63.7031 67.3111 63.6253C67.3111 63.6253 67.3319 65.0096 67.4252 65.5799C67.5185 66.2176 68.1355 66.1502 68.4517 66.4301C68.825 66.0206 69.499 66.0413 69.3953 65.3362C69.302 64.6311 69.162 63.9882 69.1412 63.5113C69.3486 63.9416 69.7582 65.5591 69.9189 66.0206C70.1833 66.7049 70.8469 66.4975 71.2202 66.7671C71.4639 66.2901 72.0809 66.1502 71.8372 65.4295C71.7698 65.2429 70.7588 63.1172 70.6085 62.7077C70.9662 63.2313 71.9461 65.1029 72.2468 65.6265C72.5837 66.1709 73.2007 65.9065 73.6414 66.0413C73.7243 65.6473 74.3206 65.191 73.8851 64.5067C73.3407 63.5994 72.0601 62.0181 71.9927 61.7952C72.2468 62.0389 74.2324 64.5067 74.388 64.6415C74.8494 65.0459 75.5234 64.7348 75.9226 64.7348C75.9226 64.2837 76.2803 63.7705 75.7618 63.2468C75.2849 62.7906 74.1909 62.0129 73.9576 61.7485C74.6886 62.2514 75.5493 63.0498 76.0625 63.1794C76.9698 63.4128 77.2965 63.0498 77.6334 62.9099C77.3535 62.0855 77.7268 61.7019 75.8085 60.8983C77.4675 61.4893 78.2037 61.199 78.7948 60.7324C78.5615 60.1413 77.9704 59.6436 77.4883 59.4777C78.5044 59.4985 79.1784 59.0474 79.6191 58.4512C79.2458 57.9535 78.5044 57.5906 77.6542 57.4972C78.9088 57.3262 79.9094 56.5485 80.0235 55.6412ZM41.539 61.733C41.5183 61.733 41.5183 61.7537 41.4923 61.7796C41.3524 61.7589 41.3524 61.593 41.3783 61.453C41.4457 61.453 41.4923 61.4323 41.539 61.3856L41.5597 61.4115L41.4923 61.4582C41.5183 61.5463 41.5183 61.6397 41.539 61.733ZM41.9952 62.7077L41.7671 62.5729C41.8604 62.464 41.9486 62.464 42.0419 62.5262C42.0419 62.5936 42.0419 62.661 41.9952 62.7077ZM42.6796 61.256C42.6485 61.256 42.6174 61.256 42.5863 61.256C42.5811 61.2508 42.5759 61.2404 42.5707 61.2353C42.6122 61.2249 42.6588 61.2249 42.6951 61.2145C42.6951 61.2249 42.6848 61.2404 42.6796 61.256ZM55.8638 78.2404C55.2935 78.2404 54.8891 77.8827 55.1794 77.3798C55.3298 77.6079 55.6305 77.7116 55.8897 77.7375C55.8638 77.976 55.8638 78.0434 55.8638 78.2404ZM64.5374 77.3798C64.8277 77.8827 64.4234 78.2404 63.8531 78.2404C63.8531 78.0434 63.8531 77.976 63.8064 77.7375C64.0708 77.7168 64.3819 77.6183 64.5374 77.3798ZM55.843 46.6046C57.1443 46.3247 58.4716 45.5936 59.0678 44.9767C59.5603 45.0078 60.198 45.013 60.6801 44.9819C61.266 45.604 62.5725 46.3195 63.879 46.5994C63.122 46.5994 61.8 46.532 61.6341 46.3454C61.6808 46.8224 62.6917 47.3616 63.3553 47.5067C62.8058 47.5741 62.2977 47.5067 61.8674 47.3097C62.1007 47.6467 62.3703 47.9007 62.811 48.0511C62.3496 48.6214 61.3956 48.9895 60.452 48.9014C60.6853 49.1813 61.1156 49.3576 61.4889 49.3057C60.6387 50.6589 60.0114 52.0483 59.861 53.6555H59.8558V53.6607C59.7158 52.0483 59.0885 50.6589 58.2434 49.3057C58.6271 49.3524 59.047 49.1813 59.2648 48.9014C58.3108 48.9947 57.3932 48.6214 56.9162 48.0511C57.3621 47.9007 57.6265 47.6467 57.8598 47.3097C57.4398 47.5067 56.9162 47.5741 56.3718 47.5067C57.0354 47.3564 58.0568 46.8224 58.1035 46.3454C57.922 46.5372 56.6 46.6046 55.843 46.6046ZM43.9135 60.9086C43.7943 60.9605 43.6491 61.0227 43.5402 61.0694C43.5402 61.059 43.5402 61.0486 43.5402 61.0383C43.6543 60.9916 43.7994 60.9501 43.9135 60.9086ZM52.2813 67.0004C52.3072 67.1611 52.3279 67.2545 52.3953 67.3633C51.4984 67.5033 51.1199 67.8507 50.7933 68.421C50.3371 69.1883 50.8141 70.1785 50.6844 70.5829C50.5911 70.8369 50.2956 71.0858 49.8186 70.8629C50.0519 71.8894 51.3273 71.7702 51.6643 71.1999C51.7784 71.6768 51.6643 72.2264 51.431 72.4338C51.8302 72.4545 52.1672 72.2938 52.3746 71.9775C52.4213 72.0709 52.4213 72.2005 52.442 72.3145C52.6649 72.2005 52.8049 72.0709 52.8982 71.9568C52.9345 72.0709 52.976 72.3404 52.9241 72.5582C52.7531 72.6723 52.5612 72.7811 52.2605 72.9367C51.7836 73.17 50.9126 73.507 50.4149 73.5744C50.0053 73.6418 49.295 73.4085 49.1135 72.8382C48.9476 72.2938 48.4966 72.1175 48.1389 72.4545C48.0455 72.3871 47.7915 72.3353 47.6826 72.5064C47.6826 72.5064 47.5686 72.2471 47.4286 72.1227C47.5219 71.8427 47.4493 71.5057 47.1953 71.3917C47.1745 70.8421 46.8376 70.8421 46.7183 70.6555C46.6509 70.5414 46.6509 70.3963 46.8116 70.3755C46.7442 70.2718 46.5991 70.2511 46.5783 70.2511C46.625 70.0178 46.5524 69.7275 46.2413 69.6341L43.4832 63.9416C43.6595 63.7549 43.5661 63.4853 43.3691 63.392C43.3691 63.392 43.3691 63.3713 43.3691 63.3454C43.3847 63.2987 43.3899 63.2676 43.395 63.2313C43.4676 63.2209 43.561 63.2002 43.6387 63.1794C44.1831 63.0498 45.0333 62.2514 45.7695 61.7485C45.5103 62.0181 44.4423 62.7958 43.9653 63.2468C43.5195 63.6875 43.7061 64.1282 43.7787 64.5274L43.8824 64.7504C44.2868 64.7763 44.8934 65.0199 45.3444 64.6467C45.4844 64.5067 47.4752 62.0389 47.7397 61.8004C47.636 62.0233 46.3813 63.6046 45.811 64.5119C45.3911 65.1962 46.008 65.6473 46.0806 66.0465C46.5317 65.9065 47.1486 66.1761 47.4752 65.6317C47.7915 65.1081 48.7558 63.2365 49.1135 62.7128C48.9736 63.1224 47.9522 65.2481 47.8796 65.4347C47.636 66.1553 48.2529 66.2953 48.4966 66.7723C48.8699 66.5027 49.5387 66.7153 49.7979 66.0257C49.9586 65.5643 50.3682 63.9468 50.5808 63.5164C50.5548 63.9934 50.4149 64.6363 50.3215 65.3414C50.2282 66.0517 50.8918 66.0257 51.2392 66.4353C51.5762 66.1553 52.1931 66.2227 52.2865 65.5851C52.3798 65.0148 52.4005 63.6305 52.4005 63.6305C52.4938 63.7135 52.5405 63.7342 52.6442 63.8275C52.8723 63.5579 53.3545 63.5579 53.5152 63.2365C53.5878 63.2572 53.6085 63.3039 53.6811 63.3505C54.2047 64.2215 54.2462 65.9065 53.5152 66.5027C53.7277 66.5027 53.9922 66.4768 54.1529 66.4094C53.8314 67.0678 53.1108 67.3011 52.2813 67.0004ZM57.4347 74.9638C57.0043 75.5548 56.6674 75.9851 56.3874 76.7213C55.8845 76.6747 55.983 76.0577 56.1437 75.7467C56.4807 75.1297 57.8494 74.3261 58.539 73.5225C58.2331 74.0358 57.8079 74.5024 57.4347 74.9638ZM58.9226 76.0577C58.6426 77.1465 58.4456 78.7537 58.539 79.4743C57.5746 78.9714 58.119 77.0324 58.4923 76.1977C59.0107 75.0364 59.3737 73.6158 59.4929 72.7085C59.7936 73.3981 59.1248 75.3215 58.9226 76.0577ZM61.1779 79.4743C61.2712 78.7537 61.0845 77.1465 60.7942 76.0577C60.592 75.3215 59.9284 73.3981 60.2239 72.7085C60.338 73.6158 60.7009 75.0312 61.2245 76.1977C61.5978 77.0324 62.1422 78.9714 61.1779 79.4743ZM63.5731 75.7415C63.739 76.0577 63.8323 76.6695 63.3294 76.7162C63.0495 75.98 62.7125 75.5548 62.2977 74.9586C61.9089 74.5024 61.4837 74.0306 61.1779 73.5173C61.8622 74.3261 63.2361 75.1245 63.5731 75.7415ZM63.4539 67.4204C62.194 69.8674 59.8869 71.8583 59.861 71.8324C59.8351 71.8635 57.528 69.8674 56.2681 67.4204C55.0083 64.9785 54.1995 61.1368 54.1581 59.3014C54.1114 57.4661 54.4743 56.6833 54.4743 56.6833C54.4743 56.6833 56.0504 56.5951 57.3102 56.1596C58.3782 55.7915 59.5396 54.8532 59.8662 54.5784C60.1928 54.8532 61.3541 55.7864 62.4273 56.1596C63.682 56.6003 65.2581 56.6833 65.2581 56.6833C65.2581 56.6833 65.6158 57.4713 65.5691 59.3014C65.5173 61.1368 64.7085 64.9785 63.4539 67.4204Z" fill="#6D6E71"/>
<path d="M19.9362 85.0617L20.576 86.0955C20.9922 86.7682 20.886 87.3852 20.2839 87.7577C19.6902 88.1252 19.0797 87.946 18.666 87.2775L18.0262 86.2436L19.9362 85.0617ZM21.4023 85.343L20.8704 84.4835L23.0336 83.1448L22.2628 81.8992L16.2713 85.607L17.7925 88.065C18.6173 89.3978 19.9195 89.7576 21.0737 89.0433C21.9166 88.5217 22.2281 87.6054 21.991 86.6841L25.305 86.8153L24.4468 85.4285L21.4023 85.343Z" fill="white"/>
<path d="M29.4069 91.1749L28.3609 90.1425L23.4114 95.1572L24.4227 96.1553L30.05 95.0067L30.0918 95.0478L26.7406 98.4431L27.7867 99.4755L32.7362 94.4608L31.7249 93.4627L26.101 94.6078L26.0592 94.5667L29.4069 91.1749Z" fill="white"/>
<path d="M36.6241 97.0583L33.0357 103.122L34.3048 103.873L35.762 101.411L38.4934 103.027L37.0362 105.489L38.3052 106.24L41.8936 100.177L40.6245 99.4257L39.1126 101.981L36.3812 100.364L37.8931 97.8093L36.6241 97.0583Z" fill="white"/>
<path d="M47.716 102.211L46.2155 101.758L46.5268 109.212L48.1863 109.713L52.5636 103.674L51.1145 103.236L50.1066 104.717L47.7366 104.002L47.716 102.211ZM47.7856 108.184L47.7529 108.174L47.7217 105.151L49.484 105.682L47.7856 108.184Z" fill="white"/>
<path d="M56.8399 104.054L56.4756 111.09L62.5173 111.403L62.8816 104.367L61.4041 104.29L61.1029 110.108L58.0065 109.947L58.3077 104.13L56.8399 104.054Z" fill="white"/>
<path d="M68.5439 103.591L70.0655 110.471L71.7341 110.102L72.6102 104.792L72.6483 104.783L75.6817 109.228L77.3504 108.859L75.8288 101.98L74.5463 102.263L75.5734 106.907L75.5352 106.915L72.6541 102.752L71.7482 102.952L70.8916 107.942L70.8534 107.951L69.8264 103.307L68.5439 103.591Z" fill="white"/>
<path d="M86.1006 104.835C87.9474 103.856 88.4479 102.006 87.3967 100.021C86.3477 98.0401 84.5354 97.4142 82.6886 98.3923C80.8461 99.3681 80.3413 101.221 81.3902 103.202C82.4414 105.187 84.2581 105.81 86.1006 104.835ZM85.5247 103.747C84.5063 104.287 83.416 103.803 82.7235 102.496C82.0334 101.193 82.2485 100.023 83.2668 99.484C84.2895 98.9424 85.3775 99.4215 86.0677 100.725C86.7601 102.032 86.543 103.208 85.5247 103.747Z" fill="white"/>
<path d="M94.1086 94.7115L94.1495 99.1439L95.392 98.0356L95.3483 94.0768L95.3774 94.0508L97.3633 96.2772L98.4638 95.2956L93.7737 90.0375L92.6732 91.0191L94.7339 93.3293L94.7047 93.3553L90.6618 92.8133L89.2881 94.0386L94.1086 94.7115Z" fill="white"/>
<path d="M99.4287 82.0487L104.44 85.0284L103.397 86.7827L104.442 87.4041L107.279 82.6321L106.234 82.0107L105.194 83.7609L100.182 80.7813L99.4287 82.0487Z" fill="white"/>
<path d="M102.39 75.9232L108.936 78.5296L109.482 77.1596L102.936 74.5532L102.39 75.9232Z" fill="white"/>
<path d="M109.074 57.6047L109.025 56.3899C108.993 55.5995 109.388 55.1143 110.096 55.0856C110.793 55.0572 111.237 55.5132 111.269 56.2987L111.318 57.5135L109.074 57.6047ZM107.935 56.6394L107.976 57.6493L105.435 57.7526L105.494 59.2162L112.534 58.9301L112.417 56.0419C112.353 54.4758 111.396 53.5227 110.039 53.5778C109.049 53.6181 108.327 54.2631 108.081 55.1821L105.259 53.4398L105.325 55.0693L107.935 56.6394Z" fill="white"/>
<path d="M103.884 47.8287L104.31 49.3371L110.425 45.0635L109.954 43.3954L102.508 42.9558L102.92 44.4125L104.71 44.465L105.383 46.8474L103.884 47.8287ZM108.881 44.5557L108.891 44.5886L106.359 46.2421L105.859 44.4706L108.881 44.5557Z" fill="white"/>
<path d="M100.564 39.2107L106.691 35.7311L105.962 34.4489L103.474 35.8619L101.907 33.1021L104.395 31.6891L103.667 30.4068L97.5399 33.8865L98.2681 35.1687L100.85 33.7026L102.417 36.4624L99.8355 37.9285L100.564 39.2107Z" fill="white"/>
<path d="M94.5347 30.3238L99.6524 25.4809L98.6388 24.4098L96.5606 26.3765L94.3791 24.0713L96.4574 22.1046L95.4438 21.0335L90.3261 25.8764L91.3397 26.9475L93.496 24.907L95.6775 27.2122L93.5212 29.2528L94.5347 30.3238Z" fill="white"/>
<path d="M85.2878 22.319L86.6059 23.167L88.3566 15.9152L86.8988 14.9774L81.0294 19.5795L82.3024 20.3984L83.6787 19.2518L85.7607 20.5911L85.2878 22.319ZM86.8637 16.5572L86.8924 16.5757L86.0908 19.4914L84.5427 18.4954L86.8637 16.5572Z" fill="white"/>
<path d="M74.9995 17.3384C76.4175 17.8394 77.5555 17.418 77.9687 16.2486C78.2794 15.3693 77.849 14.4767 76.971 14.0888L76.984 14.052C77.7259 14.195 78.4838 13.7792 78.7408 13.0518C79.1003 12.0343 78.5437 11.1178 77.2961 10.677L74.4048 9.65552L72.0576 16.299L74.9995 17.3384ZM75.4292 11.1826L76.571 11.586C77.2201 11.8154 77.4857 12.251 77.297 12.785C77.0986 13.3467 76.5595 13.524 75.8183 13.2621L74.8192 12.9091L75.4292 11.1826ZM73.814 15.7543L74.4955 13.8253L75.6603 14.2368C76.4798 14.5263 76.8093 15.0156 76.5897 15.6371C76.3652 16.2725 75.8121 16.4603 75.011 16.1772L73.814 15.7543Z" fill="white"/>
<path d="M65.3491 8.06884C63.2714 7.84447 61.8199 9.09724 61.5787 11.3303C61.3381 13.5586 62.4887 15.0924 64.5665 15.3167C66.6394 15.5406 68.0957 14.2883 68.3363 12.0601C68.5775 9.82697 67.4221 8.29269 65.3491 8.06884ZM65.217 9.2922C66.3627 9.41591 66.9951 10.4272 66.8363 11.8981C66.6779 13.3642 65.8448 14.2122 64.6991 14.0885C63.5486 13.9643 62.9156 12.9579 63.074 11.4918C63.2328 10.0209 64.0714 9.16848 65.217 9.2922Z" fill="white"/>
<path d="M55.4123 15.3948L54.743 9.60324L56.7705 9.3689L56.6309 8.16112L51.1158 8.79854L51.2554 10.0063L53.2781 9.77254L53.9475 15.5641L55.4123 15.3948Z" fill="white"/>
<path d="M46.2394 17.5366L47.6245 17.0452L45.2688 10.4047L43.9297 10.8798L42.5104 16.4451L42.4552 16.4647L40.8603 11.9687L39.4751 12.4601L41.8308 19.1005L43.1699 18.6254L44.5908 13.0648L44.646 13.0452L46.2394 17.5366Z" fill="white"/>
<path d="M33.2665 20.9121L31.8471 18.3983L33.7074 17.1838L36.2298 21.0476L33.8216 22.6198L33.8002 22.5871C33.8617 22.1096 33.6513 21.5997 33.2665 20.9121ZM33.8715 24.045L37.7517 21.5119L38.5124 22.6772L39.6286 21.9485L38.2006 19.7611L37.4646 20.2415L34.2803 15.3637L30.0975 18.0943L32.0685 21.5601C32.5426 22.3935 32.7256 22.9329 32.4969 23.4846L32.0839 23.7542L33.5119 25.9416L34.6322 25.2103L33.8715 24.045Z" fill="white"/>
<path d="M29.0395 26.7175L26.8009 28.9948L25.5334 27.7488L27.6454 25.6004L26.8376 24.8063L24.7256 26.9547L23.5138 25.7635L25.7525 23.4862L24.8854 22.6339L21.613 25.9627L26.6377 30.9022L29.9101 27.5733L29.0395 26.7175Z" fill="white"/>
<path d="M16.0438 33.8933L21.9296 37.7666L22.7402 36.5348L20.8843 35.3135L21.6091 34.2122C22.4251 32.9722 22.1838 31.5801 20.9765 30.7856C19.7651 29.9884 18.414 30.2917 17.6195 31.499L16.0438 33.8933ZM17.8293 33.303L18.3796 32.4668C18.8439 31.7612 19.4876 31.6003 20.1565 32.0405C20.8295 32.4834 20.9337 33.1423 20.4693 33.8479L19.9217 34.68L17.8293 33.303Z" fill="white"/>
<path d="M15.3431 43.5696L13.2841 39.6443L12.6842 41.1975L14.5296 44.7001L14.5156 44.7366L11.7325 43.6617L11.2013 45.0373L17.774 47.5758L18.3053 46.2002L15.4174 45.0849L15.4315 45.0484L19.2763 43.6859L19.9395 41.9686L15.3431 43.5696Z" fill="white"/>
<path d="M12.8249 54.9219L9.88746 51.6023L9.67615 53.2539L12.3051 56.214L12.3002 56.2527L9.34091 55.8741L9.15377 57.3368L16.1427 58.231L16.3298 56.7683L13.2592 56.3754L13.2641 56.3367L16.6719 54.0948L16.9055 52.2689L12.8249 54.9219Z" fill="white"/>
<path d="M16.5798 64.3833L16.4015 62.8261L9.6803 66.0633L9.87758 67.7854L17.1561 69.4139L16.9838 67.9101L15.2248 67.5709L14.9431 65.1114L16.5798 64.3833ZM11.1226 66.8122L11.1187 66.7782L13.8829 65.5523L14.0924 67.3812L11.1226 66.8122Z" fill="white"/>
</g>
<defs>
<clipPath id="clip0_0_116">
<rect width="120" height="120" fill="white"/>
</clipPath>
</defs>
</svg>
