<svg width="192" height="60" viewBox="0 0 192 60" fill="none" xmlns="http://www.w3.org/2000/svg">
<path fill-rule="evenodd" clip-rule="evenodd" d="M10.3486 27.7571C8.40081 27.7571 6.6351 27.3365 5.05141 26.4954C3.48593 25.636 2.24811 24.4565 1.33794 22.9571C0.44598 21.4394 0 19.7297 0 17.828C0 15.9263 0.44598 14.2257 1.33794 12.7263C2.24811 11.2086 3.48593 10.0292 5.05141 9.18806C6.6351 8.32864 8.40992 7.89893 10.3759 7.89893C12.0324 7.89893 13.525 8.1915 14.8539 8.77663C16.2009 9.36177 17.3295 10.2029 18.2397 11.3L15.4 13.9332C14.1075 12.4338 12.5057 11.684 10.5943 11.684C9.4111 11.684 8.35531 11.9492 7.42694 12.4795C6.49857 12.9915 5.77044 13.7137 5.24254 14.6463C4.73285 15.5789 4.47801 16.6394 4.47801 17.828C4.47801 19.0166 4.73285 20.0771 5.24254 21.0097C5.77044 21.9423 6.49857 22.6737 7.42694 23.204C8.35531 23.716 9.4111 23.972 10.5943 23.972C12.5057 23.972 14.1075 23.2131 15.4 21.6954L18.2397 24.3285C17.3295 25.444 16.2009 26.2943 14.8539 26.8794C13.5068 27.4645 12.0051 27.7571 10.3486 27.7571ZM37.1183 23.8623V27.428H22.319V8.22807H36.7633V11.7938H26.7151V15.9629H35.5892V19.4189H26.7151V23.8623H37.1183ZM55.6282 27.428H59.2598V8.22807H54.891V19.8851L45.3889 8.22807H41.73V27.428H46.0988V15.7709L55.6282 27.428ZM68.8334 11.8486H62.7171V8.22807H79.3731V11.8486H73.2568V21.7136H68.8334V11.8486ZM87.2687 8.22807H82.8453V27.428H87.2687V8.22807ZM102.044 27.7571C100.096 27.7571 98.3306 27.3365 96.7469 26.4954C95.1814 25.636 93.9436 24.4565 93.0334 22.9571C92.1414 21.4394 91.6955 19.7297 91.6955 17.828C91.6955 15.9263 92.1414 14.2257 93.0334 12.7263C93.9436 11.2086 95.1814 10.0292 96.7469 9.18806C98.3306 8.32864 100.105 7.89893 102.071 7.89893C103.728 7.89893 105.221 8.1915 106.549 8.77663C107.896 9.36177 109.025 10.2029 109.935 11.3L107.095 13.9332C105.803 12.4338 104.201 11.684 102.29 11.684C101.107 11.684 100.051 11.9492 99.1224 12.4795C98.194 12.9915 97.4659 13.7137 96.938 14.6463C96.4283 15.5789 96.1735 16.6394 96.1735 17.828C96.1735 19.0166 96.4283 20.0771 96.938 21.0097C97.4659 21.9423 98.194 22.6737 99.1224 23.204C100.051 23.716 101.107 23.972 102.29 23.972C104.201 23.972 105.803 23.2131 107.095 21.6954L109.935 24.3285C109.025 25.444 107.896 26.2943 106.549 26.8794C105.202 27.4645 103.701 27.7571 102.044 27.7571ZM168.208 27.4284L164.522 22.0799H164.303H160.453V27.4284H156.03V8.22852H164.303C165.996 8.22852 167.461 8.51194 168.699 9.0788C169.955 9.64565 170.92 10.4502 171.594 11.4925C172.267 12.5348 172.604 13.7691 172.604 15.1953C172.604 16.6216 172.258 17.8559 171.566 18.8982C170.893 19.9222 169.928 20.7084 168.672 21.257L172.959 27.4284H168.208ZM168.126 15.1953C168.126 14.1165 167.78 13.2936 167.088 12.7268C166.397 12.1416 165.386 11.8491 164.057 11.8491H160.453V18.5416H164.057C165.386 18.5416 166.397 18.249 167.088 17.6639C167.78 17.0788 168.126 16.2559 168.126 15.1953ZM192 23.8627V27.4284H177.201V8.22852H191.645V11.7942H181.597V15.9633H190.471V19.4193H181.597V23.8627H192ZM73.3822 22.856H68.8314V27.4274H73.3822V22.856Z" fill="#191919"/>
<path d="M148.883 19.4897H143.804C143.804 11.5436 137.391 5.10201 129.481 5.10201V0C140.197 0 148.883 8.72585 148.883 19.4897ZM129.481 5.10201V10.204C124.152 10.204 119.831 14.5441 119.831 19.8978H114.752C114.752 11.7263 121.346 5.10201 129.481 5.10201ZM129.075 34.2855V29.1835C134.404 29.1835 138.725 24.8435 138.725 19.4897H143.804C143.804 27.6612 137.21 34.2855 129.075 34.2855ZM119.831 19.8978H124.91C124.91 22.4335 126.55 24.0805 129.075 24.0805V29.1825C123.745 29.1825 119.831 25.2515 119.831 19.8978Z" fill="#1F50FE"/>
<path d="M47.7158 50.7158C47.0518 50.7158 46.4398 50.6118 45.8798 50.4038C45.3278 50.1878 44.8438 49.8838 44.4278 49.4918C44.0198 49.0998 43.6998 48.6398 43.4678 48.1118C43.2438 47.5838 43.1318 47.0038 43.1318 46.3718C43.1318 45.7398 43.2438 45.1598 43.4678 44.6318C43.6998 44.1038 44.0238 43.6438 44.4398 43.2518C44.8558 42.8598 45.3438 42.5598 45.9038 42.3518C46.4638 42.1358 47.0798 42.0278 47.7518 42.0278C48.4958 42.0278 49.1638 42.1518 49.7558 42.3998C50.3558 42.6478 50.8598 43.0078 51.2678 43.4798L50.0198 44.6318C49.7158 44.3118 49.3838 44.0758 49.0238 43.9238C48.6638 43.7638 48.2718 43.6838 47.8478 43.6838C47.4398 43.6838 47.0678 43.7478 46.7318 43.8758C46.3958 44.0038 46.1038 44.1878 45.8558 44.4278C45.6158 44.6678 45.4278 44.9518 45.2918 45.2798C45.1638 45.6078 45.0998 45.9718 45.0998 46.3718C45.0998 46.7638 45.1638 47.1238 45.2918 47.4518C45.4278 47.7798 45.6158 48.0678 45.8558 48.3158C46.1038 48.5558 46.3918 48.7398 46.7198 48.8678C47.0558 48.9958 47.4238 49.0598 47.8238 49.0598C48.2078 49.0598 48.5798 48.9998 48.9398 48.8798C49.3078 48.7518 49.6638 48.5398 50.0078 48.2438L51.1118 49.6478C50.6558 49.9918 50.1238 50.2558 49.5158 50.4398C48.9158 50.6238 48.3158 50.7158 47.7158 50.7158ZM49.3358 49.3958V46.2398H51.1118V49.6478L49.3358 49.3958ZM60.1177 50.5718V42.1718H63.7537C64.5057 42.1718 65.1537 42.2958 65.6977 42.5438C66.2417 42.7838 66.6617 43.1318 66.9577 43.5878C67.2537 44.0438 67.4017 44.5878 67.4017 45.2198C67.4017 45.8438 67.2537 46.3838 66.9577 46.8398C66.6617 47.2878 66.2417 47.6318 65.6977 47.8718C65.1537 48.1118 64.5057 48.2318 63.7537 48.2318H61.1977L62.0617 47.3798V50.5718H60.1177ZM65.4577 50.5718L63.3577 47.5238H65.4337L67.5577 50.5718H65.4577ZM62.0617 47.5958L61.1977 46.6838H63.6457C64.2457 46.6838 64.6937 46.5558 64.9897 46.2998C65.2857 46.0358 65.4337 45.6758 65.4337 45.2198C65.4337 44.7558 65.2857 44.3958 64.9897 44.1398C64.6937 43.8838 64.2457 43.7558 63.6457 43.7558H61.1977L62.0617 42.8318V47.5958ZM80.2219 50.7158C79.5579 50.7158 78.9419 50.6078 78.3739 50.3918C77.8139 50.1758 77.3259 49.8718 76.9099 49.4798C76.5019 49.0878 76.1819 48.6278 75.9499 48.0998C75.7259 47.5718 75.6139 46.9958 75.6139 46.3718C75.6139 45.7478 75.7259 45.1718 75.9499 44.6438C76.1819 44.1158 76.5059 43.6558 76.9219 43.2638C77.3379 42.8718 77.8259 42.5678 78.3859 42.3518C78.9459 42.1358 79.5539 42.0278 80.2099 42.0278C80.8739 42.0278 81.4819 42.1358 82.0339 42.3518C82.5939 42.5678 83.0779 42.8718 83.4859 43.2638C83.9019 43.6558 84.2259 44.1158 84.4579 44.6438C84.6899 45.1638 84.8059 45.7398 84.8059 46.3718C84.8059 46.9958 84.6899 47.5758 84.4579 48.1118C84.2259 48.6398 83.9019 49.0998 83.4859 49.4918C83.0779 49.8758 82.5939 50.1758 82.0339 50.3918C81.4819 50.6078 80.8779 50.7158 80.2219 50.7158ZM80.2099 49.0598C80.5859 49.0598 80.9299 48.9958 81.2419 48.8678C81.5619 48.7398 81.8419 48.5558 82.0819 48.3158C82.3219 48.0758 82.5059 47.7918 82.6339 47.4638C82.7699 47.1358 82.8379 46.7718 82.8379 46.3718C82.8379 45.9718 82.7699 45.6078 82.6339 45.2798C82.5059 44.9518 82.3219 44.6678 82.0819 44.4278C81.8499 44.1878 81.5739 44.0038 81.2539 43.8758C80.9339 43.7478 80.5859 43.6838 80.2099 43.6838C79.8339 43.6838 79.4859 43.7478 79.1659 43.8758C78.8539 44.0038 78.5779 44.1878 78.3379 44.4278C78.0979 44.6678 77.9099 44.9518 77.7739 45.2798C77.6459 45.6078 77.5819 45.9718 77.5819 46.3718C77.5819 46.7638 77.6459 47.1278 77.7739 47.4638C77.9099 47.7918 78.0939 48.0758 78.3259 48.3158C78.5659 48.5558 78.8459 48.7398 79.1659 48.8678C79.4859 48.9958 79.8339 49.0598 80.2099 49.0598ZM97.1989 50.7158C96.0069 50.7158 95.0749 50.3838 94.4029 49.7198C93.7309 49.0558 93.3949 48.1078 93.3949 46.8758V42.1718H95.3389V46.8038C95.3389 47.6038 95.5029 48.1798 95.8309 48.5318C96.1589 48.8838 96.6189 49.0598 97.2109 49.0598C97.8029 49.0598 98.2629 48.8838 98.5909 48.5318C98.9189 48.1798 99.0829 47.6038 99.0829 46.8038V42.1718H101.003V46.8758C101.003 48.1078 100.667 49.0558 99.9949 49.7198C99.3229 50.3838 98.3909 50.7158 97.1989 50.7158ZM110.124 50.5718V42.1718H113.76C114.512 42.1718 115.16 42.2958 115.704 42.5438C116.248 42.7838 116.668 43.1318 116.964 43.5878C117.26 44.0438 117.408 44.5878 117.408 45.2198C117.408 45.8438 117.26 46.3838 116.964 46.8398C116.668 47.2958 116.248 47.6478 115.704 47.8958C115.16 48.1358 114.512 48.2558 113.76 48.2558H111.204L112.068 47.3798V50.5718H110.124ZM112.068 47.5958L111.204 46.6718H113.652C114.252 46.6718 114.7 46.5438 114.996 46.2878C115.292 46.0318 115.44 45.6758 115.44 45.2198C115.44 44.7558 115.292 44.3958 114.996 44.1398C114.7 43.8838 114.252 43.7558 113.652 43.7558H111.204L112.068 42.8318V47.5958Z" fill="#1F50FE"/>
</svg>
